G04 DesignSpark PCB Gerber Version 10.0 Build 5299*
G04 #@! TF.Part,Single*
G04 #@! TF.FileFunction,Soldermask,Top*
G04 #@! TF.FilePolarity,Negative*
%FSLAX35Y35*%
%MOIN*%
G04 #@! TA.AperFunction,SMDPad,CuDef*
%ADD125R,0.01584X0.03356*%
%ADD115R,0.01781X0.03553*%
%ADD120R,0.01781X0.03750*%
%ADD129R,0.01978X0.02962*%
%ADD130R,0.02175X0.02962*%
%ADD126R,0.02175X0.04537*%
%ADD114R,0.05009X0.05403*%
%ADD108R,0.06100X0.06600*%
G04 #@! TA.AperFunction,ComponentPad*
%ADD109R,0.06600X0.06600*%
G04 #@! TA.AperFunction,SMDPad,CuDef*
%ADD121R,0.11624X0.11624*%
%ADD117R,0.11820X0.11820*%
G04 #@! TD.AperFunction*
%ADD11C,0.01200*%
G04 #@! TA.AperFunction,ComponentPad*
%ADD111C,0.07600*%
%ADD112C,0.08474*%
G04 #@! TA.AperFunction,SMDPad,CuDef*
%ADD123R,0.03356X0.01584*%
%ADD124R,0.03356X0.01781*%
%ADD116R,0.03553X0.01781*%
%ADD119R,0.03750X0.01781*%
%ADD122R,0.03356X0.02175*%
%ADD127R,0.03750X0.02175*%
%ADD128R,0.10049X0.02175*%
%ADD131R,0.08277X0.03159*%
%ADD118R,0.07687X0.04931*%
%ADD110R,0.06600X0.06100*%
G04 #@! TA.AperFunction,WasherPad*
%ADD107C,0.16348*%
G04 #@! TA.AperFunction,SMDPad,CuDef*
%ADD113R,0.13986X0.10049*%
G04 #@! TD.AperFunction*
X0Y0D02*
D02*
D11*
X19104Y15324D02*
X175324D01*
Y172805D01*
X19104D01*
Y15324D01*
D02*
D107*
X29183Y25403D03*
Y161466D03*
X165246Y25403D03*
Y161466D03*
D02*
D108*
X31702Y109092D03*
Y118092D03*
X39261Y109092D03*
Y118092D03*
X41781Y76336D03*
Y85336D03*
X47372Y109092D03*
Y118092D03*
X54931Y109092D03*
Y118092D03*
X62490Y109092D03*
Y118092D03*
X70049Y109092D03*
Y118092D03*
X76742Y22872D03*
Y31872D03*
X77608Y109092D03*
Y118092D03*
X88395Y85844D03*
Y94844D03*
X95876Y85844D03*
Y94844D03*
X107293Y61218D03*
Y70218D03*
X112805Y144131D03*
Y153131D03*
X114380Y127202D03*
Y136202D03*
X114852Y61218D03*
Y70218D03*
X120285Y144131D03*
Y153131D03*
X122411Y61218D03*
Y70218D03*
X129970Y61218D03*
Y70218D03*
X150206Y97675D03*
Y106675D03*
X158080Y97675D03*
Y106675D03*
D02*
D109*
X26663Y133750D03*
Y143750D03*
X26742Y40679D03*
Y50679D03*
Y60679D03*
Y72844D03*
Y82844D03*
X64380Y131545D03*
Y141545D03*
X140049Y22883D03*
X144301Y88002D03*
X150049Y22883D03*
X154301Y88002D03*
X167529Y96899D03*
Y106899D03*
D02*
D110*
X52242Y32844D03*
Y40344D03*
Y47844D03*
Y57844D03*
Y67844D03*
Y85344D03*
X61242Y32844D03*
Y40344D03*
Y47844D03*
Y57844D03*
Y67844D03*
Y85344D03*
X90490Y130128D03*
X95234Y38002D03*
Y45561D03*
Y53120D03*
X99490Y130128D03*
X104234Y38002D03*
Y45561D03*
Y53120D03*
X127990Y143907D03*
Y152962D03*
Y160443D03*
X136990Y143907D03*
Y152962D03*
Y160443D03*
X138069Y37844D03*
Y45344D03*
X147069Y37844D03*
Y45344D03*
D02*
D111*
X111624Y29222D03*
Y52844D03*
X129340Y29222D03*
Y52844D03*
D02*
D112*
X89242Y27844D03*
X99242D03*
D02*
D113*
X114380Y87608D03*
Y110443D03*
D02*
D114*
X86230Y112017D03*
X98435D03*
D02*
D115*
X143671Y55324D03*
Y71072D03*
X145639Y55324D03*
Y71072D03*
X147608Y55324D03*
Y71072D03*
X149576Y55324D03*
Y71072D03*
X151545Y55324D03*
Y71072D03*
D02*
D116*
X139734Y59261D03*
Y61230D03*
Y63198D03*
Y65167D03*
Y67135D03*
X155482Y59261D03*
Y61230D03*
Y63198D03*
Y65167D03*
Y67135D03*
D02*
D117*
X147608Y63198D03*
D02*
D118*
X167923Y50600D03*
Y60836D03*
D02*
D119*
X73868Y60423D03*
Y62391D03*
Y64360D03*
Y66328D03*
Y68297D03*
Y70265D03*
X89616Y60423D03*
Y62391D03*
Y64360D03*
Y66328D03*
Y68297D03*
Y70265D03*
D02*
D120*
X76820Y57470D03*
Y73218D03*
X78789Y57470D03*
Y73218D03*
X80757Y57470D03*
Y73218D03*
X82726Y57470D03*
Y73218D03*
X84694Y57470D03*
Y73218D03*
X86663Y57470D03*
Y73218D03*
D02*
D121*
X81742Y65344D03*
D02*
D122*
X103848Y139380D03*
Y148435D03*
D02*
D123*
Y141840D03*
Y145974D03*
D02*
D124*
Y143907D03*
D02*
D125*
X99025Y137608D03*
Y150206D03*
X100994Y137608D03*
Y150206D03*
D02*
D126*
X94793Y138198D03*
Y149616D03*
D02*
D127*
X89478Y139380D03*
Y148435D03*
D02*
D128*
X92628Y143907D03*
D02*
D129*
X103159Y137411D03*
Y150403D03*
D02*
D130*
X90265Y137411D03*
Y150403D03*
D02*
D131*
X129635Y125403D03*
X144990D03*
X0Y0D02*
M02*
