G04 DesignSpark PCB Gerber Version 10.0 Build 5299*
G04 #@! TF.Part,Single*
G04 #@! TF.FileFunction,Legend,Top*
G04 #@! TF.FilePolarity,Positive*
%FSLAX35Y35*%
%MOIN*%
%ADD10C,0.00394*%
%ADD132C,0.00500*%
%ADD17C,0.00787*%
%ADD134C,0.00984*%
%ADD133C,0.01000*%
%ADD11C,0.01200*%
G04 #@! TD.AperFunction*
X0Y0D02*
D02*
D10*
X162017Y49813D02*
Y61624D01*
X173828D02*
Y49813D01*
D02*
D11*
X19104Y15324D02*
X175324D01*
Y172805D01*
X19104D01*
Y15324D01*
D02*
D17*
X84025Y115561D02*
X97844D01*
X86820Y108474D02*
X97844D01*
X101643Y112529D02*
Y85521D01*
X108769Y139380D02*
G75*
G02*
X109163I197J0D01*
G01*
G75*
G03*
X108769I-197J0D01*
G01*
X109163D02*
G75*
G02*
X108769I-197J0D01*
G01*
X109163D02*
X127116Y85521D02*
Y112529D01*
X128061Y117529D02*
X146565D01*
Y133277D02*
X128061D01*
X167923Y63986D02*
G75*
G02*
Y64380I0J197D01*
G01*
Y63986D02*
G75*
G02*
Y64380I0J197D01*
G01*
G75*
G02*
Y63986I0J-197D01*
G01*
D02*
D132*
X28202Y121592D02*
Y105592D01*
X35202D01*
Y121592D01*
X28202D01*
X30430Y101648D02*
X30118Y101961D01*
X29805Y102586D01*
Y103523D01*
X30118Y104148D01*
X30430Y104461D01*
X31055Y104773D01*
X32305D01*
X32930Y104461D01*
X33243Y104148D01*
X33555Y103523D01*
Y102586D01*
X33243Y101961D01*
X32930Y101648D01*
X29805Y98211D02*
X33555D01*
X31055Y99773D01*
Y97273D01*
X33427Y55962D02*
Y54712D01*
Y55337D02*
X37177D01*
Y55962D02*
Y54712D01*
X33427Y49399D02*
Y51899D01*
X35615Y49712D01*
X36240Y49399D01*
X36865Y49712D01*
X37177Y50337D01*
Y51274D01*
X36865Y51899D01*
X34052Y43774D02*
X33740Y44087D01*
X33427Y44712D01*
Y45649D01*
X33740Y46274D01*
X34052Y46587D01*
X34677Y46899D01*
X35927D01*
X36552Y46587D01*
X36865Y46274D01*
X37177Y45649D01*
Y44712D01*
X36865Y44087D01*
X36552Y43774D01*
X37177Y86033D02*
X33427Y84470D01*
X37177Y82908D01*
X34365Y81033D02*
X33740Y80720D01*
X33427Y80096D01*
Y79470D01*
X33740Y78846D01*
X34365Y78533D01*
X34990D01*
X35615Y78846D01*
X35927Y79470D01*
Y80096D01*
X35615Y80720D01*
X34990Y81033D01*
X33427D02*
X37177D01*
X35927Y76033D02*
X34365D01*
X33740Y75720D01*
X33427Y75096D01*
Y74470D01*
X33740Y73846D01*
X34365Y73533D01*
X35927D02*
X33427D01*
X33740Y71033D02*
X33427Y70408D01*
Y69158D01*
X33740Y68533D01*
X34365D01*
X34677Y69158D01*
Y70408D01*
X34990Y71033D01*
X35615D01*
X35927Y70408D01*
Y69158D01*
X35615Y68533D01*
X38909Y148868D02*
X35159Y147305D01*
X38909Y145743D01*
X36097Y143868D02*
X35472Y143555D01*
X35159Y142930D01*
Y142305D01*
X35472Y141680D01*
X36097Y141368D01*
X36722D01*
X37347Y141680D01*
X37659Y142305D01*
Y142930D01*
X37347Y143555D01*
X36722Y143868D01*
X35159D02*
X38909D01*
X37347Y138868D02*
X37659Y138243D01*
Y137305D01*
X37347Y136680D01*
X36722Y136368D01*
X35785D01*
X35472Y136680D01*
X35159Y137305D01*
Y137930D01*
X35472Y138555D01*
X35785Y138868D01*
X36097D01*
X36409Y138555D01*
X36722Y137930D01*
Y137305D01*
X36409Y136680D01*
X36097Y136368D01*
X35785D02*
X35159D01*
X37659Y133347D02*
Y131889D01*
X38285Y132618D02*
X35472D01*
X35159Y132305D01*
Y131993D01*
X35472Y131680D01*
X35761Y121592D02*
Y105592D01*
X42761D01*
Y121592D01*
X35761D01*
X38304Y101648D02*
X37992Y101961D01*
X37679Y102586D01*
Y103523D01*
X37992Y104148D01*
X38304Y104461D01*
X38929Y104773D01*
X40179D01*
X40804Y104461D01*
X41117Y104148D01*
X41429Y103523D01*
Y102586D01*
X41117Y101961D01*
X40804Y101648D01*
X37992Y99461D02*
X37679Y98836D01*
Y98211D01*
X37992Y97586D01*
X38617Y97273D01*
X39242Y97586D01*
X39554Y98211D01*
Y98836D01*
Y98211D02*
X39867Y97586D01*
X40492Y97273D01*
X41117Y97586D01*
X41429Y98211D01*
Y98836D01*
X41117Y99461D01*
X39242Y31281D02*
Y35031D01*
X41429D01*
X42054Y34719D01*
X42367Y34094D01*
X42054Y33469D01*
X41429Y33157D01*
X39242D01*
X41429D02*
X42367Y31281D01*
X44242Y31594D02*
X44867Y31281D01*
X45804D01*
X46429Y31594D01*
X46742Y32219D01*
Y32531D01*
X46429Y33157D01*
X45804Y33469D01*
X44242D01*
Y35031D01*
X46742D01*
X39242Y38781D02*
Y42531D01*
X41429D01*
X42054Y42219D01*
X42367Y41594D01*
X42054Y40969D01*
X41429Y40657D01*
X39242D01*
X41429D02*
X42367Y38781D01*
X44242Y39719D02*
X44554Y40344D01*
X45179Y40657D01*
X45804D01*
X46429Y40344D01*
X46742Y39719D01*
X46429Y39094D01*
X45804Y38781D01*
X45179D01*
X44554Y39094D01*
X44242Y39719D01*
Y40657D01*
X44554Y41594D01*
X45179Y42219D01*
X45804Y42531D01*
X39242Y46281D02*
Y50031D01*
X41429D01*
X42054Y49719D01*
X42367Y49094D01*
X42054Y48469D01*
X41429Y48157D01*
X39242D01*
X41429D02*
X42367Y46281D01*
X44867D02*
X46117D01*
X45492D02*
Y50031D01*
X44867Y49407D01*
X40364Y66656D02*
Y70406D01*
X42551D01*
X43176Y70093D01*
X43489Y69468D01*
X43176Y68843D01*
X42551Y68531D01*
X40364D01*
X42551D02*
X43489Y66656D01*
X46926D02*
Y70406D01*
X45364Y67906D01*
X47864D01*
X43872Y121592D02*
Y105592D01*
X50872D01*
Y121592D01*
X43872D01*
X45281Y72836D02*
Y88836D01*
X38281D01*
Y72836D01*
X45281D01*
X47044Y77711D02*
X46732Y78024D01*
X46419Y78649D01*
Y79586D01*
X46732Y80211D01*
X47044Y80524D01*
X47669Y80836D01*
X48919D01*
X49544Y80524D01*
X49857Y80211D01*
X50169Y79586D01*
Y78649D01*
X49857Y78024D01*
X49544Y77711D01*
X46419Y73336D02*
Y75836D01*
X48607Y73649D01*
X49232Y73336D01*
X49857Y73649D01*
X50169Y74274D01*
Y75211D01*
X49857Y75836D01*
X47832Y101412D02*
X47519Y101724D01*
X47207Y102350D01*
Y103287D01*
X47519Y103912D01*
X47832Y104224D01*
X48457Y104537D01*
X49707D01*
X50332Y104224D01*
X50644Y103912D01*
X50957Y103287D01*
Y102350D01*
X50644Y101724D01*
X50332Y101412D01*
X47207Y98912D02*
Y97662D01*
Y98287D02*
X50957D01*
X50332Y98912D01*
X47207Y92974D02*
X50957D01*
X48457Y94537D01*
Y92037D01*
X48742Y64344D02*
X64742D01*
Y71344D01*
X48742D01*
Y64344D01*
Y81844D02*
X64742D01*
Y88844D01*
X48742D01*
Y81844D01*
X51431Y121592D02*
Y105592D01*
X58431D01*
Y121592D01*
X51431D01*
X53974Y101412D02*
X53661Y101724D01*
X53348Y102350D01*
Y103287D01*
X53661Y103912D01*
X53974Y104224D01*
X54598Y104537D01*
X55848D01*
X56474Y104224D01*
X56786Y103912D01*
X57098Y103287D01*
Y102350D01*
X56786Y101724D01*
X56474Y101412D01*
X53348Y98912D02*
Y97662D01*
Y98287D02*
X57098D01*
X56474Y98912D01*
X53661Y94224D02*
X53348Y93600D01*
Y92974D01*
X53661Y92350D01*
X54286Y92037D01*
X54911Y92350D01*
X55224Y92974D01*
Y93600D01*
Y92974D02*
X55536Y92350D01*
X56161Y92037D01*
X56786Y92350D01*
X57098Y92974D01*
Y93600D01*
X56786Y94224D01*
X56899Y76341D02*
Y80091D01*
X59087D01*
X59712Y79778D01*
X60024Y79153D01*
X59712Y78528D01*
X59087Y78216D01*
X56899D01*
X59087D02*
X60024Y76341D01*
X62212Y76653D02*
X62837Y76341D01*
X63462D01*
X64087Y76653D01*
X64399Y77278D01*
X64087Y77903D01*
X63462Y78216D01*
X62837D01*
X63462D02*
X64087Y78528D01*
X64399Y79153D01*
X64087Y79778D01*
X63462Y80091D01*
X62837D01*
X62212Y79778D01*
X58990Y121592D02*
Y105592D01*
X65990D01*
Y121592D01*
X58990D01*
X61218Y101412D02*
X60905Y101724D01*
X60593Y102350D01*
Y103287D01*
X60905Y103912D01*
X61218Y104224D01*
X61843Y104537D01*
X63093D01*
X63718Y104224D01*
X64030Y103912D01*
X64343Y103287D01*
Y102350D01*
X64030Y101724D01*
X63718Y101412D01*
X60593Y98912D02*
Y97662D01*
Y98287D02*
X64343D01*
X63718Y98912D01*
X60593Y92037D02*
Y94537D01*
X62780Y92350D01*
X63405Y92037D01*
X64030Y92350D01*
X64343Y92974D01*
Y93912D01*
X64030Y94537D01*
X65524Y156112D02*
X61774Y154549D01*
X65524Y152987D01*
X61774Y148612D02*
Y151112D01*
X63961Y148924D01*
X64586Y148612D01*
X65211Y148924D01*
X65524Y149549D01*
Y150487D01*
X65211Y151112D01*
X64742Y36344D02*
X48742D01*
Y29344D01*
X64742D01*
Y36344D01*
Y43844D02*
X48742D01*
Y36844D01*
X64742D01*
Y43844D01*
Y51344D02*
X48742D01*
Y44344D01*
X64742D01*
Y51344D01*
Y61344D02*
X48742D01*
Y54344D01*
X64742D01*
Y61344D01*
X65954Y53900D02*
Y57650D01*
X68142D01*
X68767Y57337D01*
X69080Y56712D01*
X68767Y56087D01*
X68142Y55775D01*
X65954D01*
X68142D02*
X69080Y53900D01*
X73454D02*
X70954D01*
X73142Y56087D01*
X73454Y56712D01*
X73142Y57337D01*
X72517Y57650D01*
X71580D01*
X70954Y57337D01*
X66549Y121592D02*
Y105592D01*
X73549D01*
Y121592D01*
X66549D01*
X67679Y29872D02*
X71429D01*
Y27684D01*
X71117Y27059D01*
X70492Y26746D01*
X69867Y27059D01*
X69554Y27684D01*
Y29872D01*
Y27684D02*
X67679Y26746D01*
Y24872D02*
X71429Y22372D01*
Y24872D01*
X68698Y101412D02*
X68385Y101724D01*
X68073Y102350D01*
Y103287D01*
X68385Y103912D01*
X68698Y104224D01*
X69323Y104537D01*
X70573D01*
X71198Y104224D01*
X71511Y103912D01*
X71823Y103287D01*
Y102350D01*
X71511Y101724D01*
X71198Y101412D01*
X68073Y98912D02*
Y97662D01*
Y98287D02*
X71823D01*
X71198Y98912D01*
X68073Y93912D02*
Y92662D01*
Y93287D02*
X71823D01*
X71198Y93912D01*
X76166Y128934D02*
X75854Y128622D01*
X75228Y128309D01*
X74291D01*
X73666Y128622D01*
X73354Y128934D01*
X73041Y129559D01*
Y130809D01*
X73354Y131434D01*
X73666Y131747D01*
X74291Y132059D01*
X75228D01*
X75854Y131747D01*
X76166Y131434D01*
X78666Y128309D02*
X79916D01*
X79291D02*
Y132059D01*
X78666Y131434D01*
X83978Y130184D02*
X84604D01*
X85228Y130497D01*
X85541Y131122D01*
X85228Y131747D01*
X84604Y132059D01*
X83978D01*
X83354Y131747D01*
X83041Y131122D01*
X83354Y130497D01*
X83978Y130184D01*
X83354Y129872D01*
X83041Y129247D01*
X83354Y128622D01*
X83978Y128309D01*
X84604D01*
X85228Y128622D01*
X85541Y129247D01*
X85228Y129872D01*
X84604Y130184D01*
X73242Y35372D02*
Y19372D01*
X80242D01*
Y35372D01*
X73242D01*
X74108Y121592D02*
Y105592D01*
X81108D01*
Y121592D01*
X74108D01*
X76178Y101412D02*
X75866Y101724D01*
X75553Y102350D01*
Y103287D01*
X75866Y103912D01*
X76178Y104224D01*
X76803Y104537D01*
X78053D01*
X78678Y104224D01*
X78991Y103912D01*
X79303Y103287D01*
Y102350D01*
X78991Y101724D01*
X78678Y101412D01*
X75553Y98912D02*
Y97662D01*
Y98287D02*
X79303D01*
X78678Y98912D01*
X75866Y94224D02*
X75553Y93600D01*
Y92974D01*
X75866Y92350D01*
X76491Y92037D01*
X78366D01*
X78991Y92350D01*
X79303Y92974D01*
Y93600D01*
X78991Y94224D01*
X78366Y94537D01*
X76491D01*
X75866Y94224D01*
X78991Y92350D01*
X75947Y76341D02*
X77197D01*
X76572D02*
Y80091D01*
X75947D02*
X77197D01*
X83135Y76966D02*
X82822Y76653D01*
X82197Y76341D01*
X81259D01*
X80635Y76653D01*
X80322Y76966D01*
X80009Y77591D01*
Y78841D01*
X80322Y79466D01*
X80635Y79778D01*
X81259Y80091D01*
X82197D01*
X82822Y79778D01*
X83135Y79466D01*
X85635Y76341D02*
X86885D01*
X86259D02*
Y80091D01*
X85635Y79466D01*
X78159Y37758D02*
Y41508D01*
X80346D01*
X80972Y41196D01*
X81284Y40570D01*
X80972Y39946D01*
X80346Y39633D01*
X78159D01*
X80346D02*
X81284Y37758D01*
X83784D02*
X85034D01*
X84409D02*
Y41508D01*
X83784Y40883D01*
X88472Y38070D02*
X89096Y37758D01*
X89722D01*
X90346Y38070D01*
X90659Y38696D01*
Y40570D01*
X90346Y41196D01*
X89722Y41508D01*
X89096D01*
X88472Y41196D01*
X88159Y40570D01*
Y38696D01*
X88472Y38070D01*
X90346Y41196D01*
X82234Y43998D02*
Y47748D01*
X84421D01*
X85046Y47436D01*
X85359Y46811D01*
X85046Y46186D01*
X84421Y45873D01*
X82234D01*
X84421D02*
X85359Y43998D01*
X88171D02*
X88796Y44311D01*
X89421Y44936D01*
X89734Y45873D01*
Y46811D01*
X89421Y47436D01*
X88796Y47748D01*
X88171D01*
X87546Y47436D01*
X87234Y46811D01*
X87546Y46186D01*
X88171Y45873D01*
X88796D01*
X89421Y46186D01*
X89734Y46811D01*
X82234Y50632D02*
Y54382D01*
X84421D01*
X85046Y54070D01*
X85359Y53444D01*
X85046Y52820D01*
X84421Y52507D01*
X82234D01*
X84421D02*
X85359Y50632D01*
X88171Y52507D02*
X88796D01*
X89421Y52820D01*
X89734Y53444D01*
X89421Y54070D01*
X88796Y54382D01*
X88171D01*
X87546Y54070D01*
X87234Y53444D01*
X87546Y52820D01*
X88171Y52507D01*
X87546Y52194D01*
X87234Y51570D01*
X87546Y50944D01*
X88171Y50632D01*
X88796D01*
X89421Y50944D01*
X89734Y51570D01*
X89421Y52194D01*
X88796Y52507D01*
X84895Y98344D02*
Y82344D01*
X91895D01*
Y98344D01*
X84895D01*
X87438Y103774D02*
X87126Y104087D01*
X86813Y104712D01*
Y105649D01*
X87126Y106274D01*
X87438Y106587D01*
X88063Y106899D01*
X89313D01*
X89938Y106587D01*
X90251Y106274D01*
X90563Y105649D01*
Y104712D01*
X90251Y104087D01*
X89938Y103774D01*
X86813Y100962D02*
X87126Y100337D01*
X87751Y99712D01*
X88688Y99399D01*
X89626D01*
X90251Y99712D01*
X90563Y100337D01*
Y100962D01*
X90251Y101587D01*
X89626Y101899D01*
X89001Y101587D01*
X88688Y100962D01*
Y100337D01*
X89001Y99712D01*
X89626Y99399D01*
X86990Y126628D02*
X102990D01*
Y133628D01*
X86990D01*
Y126628D01*
X87135Y16281D02*
Y20031D01*
X90261Y16281D01*
Y20031D01*
X93698Y16281D02*
Y20031D01*
X92135D02*
X95261D01*
X100261Y16907D02*
X99948Y16594D01*
X99323Y16281D01*
X98385D01*
X97761Y16594D01*
X97448Y16907D01*
X97135Y17531D01*
Y18781D01*
X97448Y19407D01*
X97761Y19719D01*
X98385Y20031D01*
X99323D01*
X99948Y19719D01*
X100261Y19407D01*
X87293Y117994D02*
Y121744D01*
X89168D01*
X89793Y121432D01*
X90106Y121119D01*
X90418Y120494D01*
Y119244D01*
X90106Y118619D01*
X89793Y118307D01*
X89168Y117994D01*
X87293D01*
X92918D02*
X94168D01*
X93543D02*
Y121744D01*
X92918Y121119D01*
X89726Y154293D02*
X90976D01*
X90352D02*
Y158043D01*
X89726D02*
X90976D01*
X96914Y154919D02*
X96602Y154606D01*
X95976Y154293D01*
X95039D01*
X94414Y154606D01*
X94102Y154919D01*
X93789Y155543D01*
Y156793D01*
X94102Y157419D01*
X94414Y157731D01*
X95039Y158043D01*
X95976D01*
X96602Y157731D01*
X96914Y157419D01*
X99102Y154606D02*
X99726Y154293D01*
X100352D01*
X100976Y154606D01*
X101289Y155231D01*
X100976Y155856D01*
X100352Y156169D01*
X99726D01*
X100352D02*
X100976Y156481D01*
X101289Y157106D01*
X100976Y157731D01*
X100352Y158043D01*
X99726D01*
X99102Y157731D01*
X89242Y21407D02*
X99242D01*
G75*
G03*
Y34281I0J6437D01*
G01*
X89242D01*
G75*
G03*
Y21407I0J-6437D01*
G01*
X91734Y34502D02*
X107734D01*
Y41502D01*
X91734D01*
Y34502D01*
Y42061D02*
X107734D01*
Y49061D01*
X91734D01*
Y42061D01*
Y49620D02*
X107734D01*
Y56620D01*
X91734D01*
Y49620D01*
X94978Y102987D02*
X94665Y103299D01*
X94352Y103924D01*
Y104862D01*
X94665Y105487D01*
X94978Y105799D01*
X95602Y106112D01*
X96852D01*
X97478Y105799D01*
X97790Y105487D01*
X98102Y104862D01*
Y103924D01*
X97790Y103299D01*
X97478Y102987D01*
X94352Y100487D02*
Y99237D01*
Y99862D02*
X98102D01*
X97478Y100487D01*
X99376Y82344D02*
Y98344D01*
X92376D01*
Y82344D01*
X99376D01*
X103793Y73718D02*
Y57718D01*
X110793D01*
Y73718D01*
X103793D01*
X106356Y78971D02*
X106043Y79283D01*
X105730Y79909D01*
Y80846D01*
X106043Y81471D01*
X106356Y81783D01*
X106980Y82096D01*
X108230D01*
X108856Y81783D01*
X109168Y81471D01*
X109480Y80846D01*
Y79909D01*
X109168Y79283D01*
X108856Y78971D01*
X107606Y76159D02*
Y75533D01*
X107918Y74909D01*
X108543Y74596D01*
X109168Y74909D01*
X109480Y75533D01*
Y76159D01*
X109168Y76783D01*
X108543Y77096D01*
X107918Y76783D01*
X107606Y76159D01*
X107293Y76783D01*
X106668Y77096D01*
X106043Y76783D01*
X105730Y76159D01*
Y75533D01*
X106043Y74909D01*
X106668Y74596D01*
X107293Y74909D01*
X107606Y75533D01*
X109305Y156631D02*
Y140631D01*
X116305D01*
Y156631D01*
X109305D01*
X110049Y20829D02*
Y24579D01*
X112236D01*
X112861Y24267D01*
X113174Y23641D01*
X112861Y23017D01*
X112236Y22704D01*
X110049D01*
X112236D02*
X113174Y20829D01*
X117549Y21141D02*
X117236Y20829D01*
X116611D01*
X115986D01*
X115361Y21141D01*
X115049Y21767D01*
Y22704D01*
X115361Y23017D01*
X115986Y23329D01*
X116611D01*
X117236Y23017D01*
X117549Y22704D01*
Y22391D01*
X117236Y22079D01*
X116611Y21767D01*
X115986D01*
X115361Y22079D01*
X115049Y22391D01*
X120049Y21141D02*
X120674Y20829D01*
X121924D01*
X122549Y21141D01*
Y21767D01*
X121924Y22079D01*
X120674D01*
X120049Y22391D01*
Y23017D01*
X120674Y23329D01*
X121924D01*
X122549Y23017D01*
X127549Y21141D02*
X127236Y20829D01*
X126611D01*
X125986D01*
X125361Y21141D01*
X125049Y21767D01*
Y22704D01*
X125361Y23017D01*
X125986Y23329D01*
X126611D01*
X127236Y23017D01*
X127549Y22704D01*
Y22391D01*
X127236Y22079D01*
X126611Y21767D01*
X125986D01*
X125361Y22079D01*
X125049Y22391D01*
X130570Y23329D02*
X132028D01*
X131299Y23954D02*
Y21141D01*
X131611Y20829D01*
X131924D01*
X132236Y21141D01*
X110986Y169891D02*
X114736D01*
Y167704D01*
X114424Y167079D01*
X113799Y166766D01*
X113174Y167079D01*
X112861Y167704D01*
Y169891D01*
Y167704D02*
X110986Y166766D01*
Y164266D02*
Y163016D01*
Y163641D02*
X114736D01*
X114111Y164266D01*
X110986Y158329D02*
X114736D01*
X112236Y159891D01*
Y157391D01*
X110880Y139702D02*
Y123702D01*
X117880D01*
Y139702D01*
X110880D01*
X111352Y73718D02*
Y57718D01*
X118352D01*
Y73718D01*
X111352D01*
X113915Y78971D02*
X113602Y79283D01*
X113289Y79909D01*
Y80846D01*
X113602Y81471D01*
X113915Y81783D01*
X114539Y82096D01*
X115789D01*
X116415Y81783D01*
X116727Y81471D01*
X117039Y80846D01*
Y79909D01*
X116727Y79283D01*
X116415Y78971D01*
X113289Y77096D02*
X117039Y74596D01*
Y77096D01*
X112608Y46446D02*
Y35620D01*
G75*
G03*
X115561Y32667I2953J0D01*
G01*
X125403D01*
G75*
G03*
X128356Y35620I0J2953D01*
G01*
Y46446D01*
G75*
G03*
X125403Y49399I-2953J0D01*
G01*
X115561D01*
G75*
G03*
X112608Y46446I0J-2953D01*
G01*
X116785Y156631D02*
Y140631D01*
X123785D01*
Y156631D01*
X116785D01*
X119485Y166372D02*
X119173Y166685D01*
X118860Y167310D01*
Y168248D01*
X119173Y168872D01*
X119485Y169185D01*
X120110Y169498D01*
X121360D01*
X121985Y169185D01*
X122298Y168872D01*
X122610Y168248D01*
Y167310D01*
X122298Y166685D01*
X121985Y166372D01*
X118860Y161998D02*
Y164498D01*
X121048Y162310D01*
X121673Y161998D01*
X122298Y162310D01*
X122610Y162935D01*
Y163872D01*
X122298Y164498D01*
X118860Y158872D02*
Y157622D01*
Y158248D02*
X122610D01*
X121985Y158872D01*
X120273Y134483D02*
X119960Y134795D01*
X119648Y135420D01*
Y136358D01*
X119960Y136983D01*
X120273Y137295D01*
X120898Y137608D01*
X122148D01*
X122773Y137295D01*
X123085Y136983D01*
X123398Y136358D01*
Y135420D01*
X123085Y134795D01*
X122773Y134483D01*
X119648Y131983D02*
Y130733D01*
Y131358D02*
X123398D01*
X122773Y131983D01*
X119648Y127608D02*
X123398Y125108D01*
Y127608D01*
X118911Y73718D02*
Y57718D01*
X125911D01*
Y73718D01*
X118911D01*
X121474Y78971D02*
X121161Y79283D01*
X120848Y79909D01*
Y80846D01*
X121161Y81471D01*
X121474Y81783D01*
X122098Y82096D01*
X123348D01*
X123974Y81783D01*
X124286Y81471D01*
X124598Y80846D01*
Y79909D01*
X124286Y79283D01*
X123974Y78971D01*
X121786Y77096D02*
X122411Y76783D01*
X122724Y76159D01*
Y75533D01*
X122411Y74909D01*
X121786Y74596D01*
X121161Y74909D01*
X120848Y75533D01*
Y76159D01*
X121161Y76783D01*
X121786Y77096D01*
X122724D01*
X123661Y76783D01*
X124286Y76159D01*
X124598Y75533D01*
X126368Y41033D02*
G75*
G03*
X114557I-5906J0D01*
G01*
G75*
G03*
X126368I5906J0D01*
G01*
X126470Y73718D02*
Y57718D01*
X133470D01*
Y73718D01*
X126470D01*
X129033Y78971D02*
X128720Y79283D01*
X128407Y79909D01*
Y80846D01*
X128720Y81471D01*
X129033Y81783D01*
X129657Y82096D01*
X130907D01*
X131533Y81783D01*
X131845Y81471D01*
X132157Y80846D01*
Y79909D01*
X131845Y79283D01*
X131533Y78971D01*
X128720Y77096D02*
X128407Y76471D01*
Y75533D01*
X128720Y74909D01*
X129345Y74596D01*
X129657D01*
X130283Y74909D01*
X130595Y75533D01*
Y77096D01*
X132157D01*
Y74596D01*
X134657Y101545D02*
X130907D01*
Y98420D01*
Y95920D02*
Y94670D01*
Y95295D02*
X134657D01*
X134033Y95920D01*
X134569Y34344D02*
X150569D01*
Y41344D01*
X134569D01*
Y34344D01*
Y41844D02*
X150569D01*
Y48844D01*
X134569D01*
Y41844D01*
X136503Y29803D02*
X137128Y29490D01*
X137753D01*
X138378Y29803D01*
X138691Y30428D01*
X138378Y31053D01*
X137753Y31365D01*
X137128D01*
X137753D02*
X138378Y31678D01*
X138691Y32303D01*
X138378Y32928D01*
X137753Y33240D01*
X137128D01*
X136503Y32928D01*
X141191Y29490D02*
X144316D01*
X146503Y29803D02*
X147128Y29490D01*
X147753D01*
X148378Y29803D01*
X148691Y30428D01*
X148378Y31053D01*
X147753Y31365D01*
X147128D01*
X147753D02*
X148378Y31678D01*
X148691Y32303D01*
X148378Y32928D01*
X147753Y33240D01*
X147128D01*
X146503Y32928D01*
X151191Y33240D02*
X152753Y29490D01*
X154316Y33240D01*
X140490Y147407D02*
X124490D01*
Y140407D01*
X140490D01*
Y147407D01*
Y156462D02*
X124490D01*
Y149462D01*
X140490D01*
Y156462D01*
Y163943D02*
X124490D01*
Y156943D01*
X140490D01*
Y163943D01*
X141931Y74549D02*
X143181D01*
X142556D02*
Y78299D01*
X141931D02*
X143181D01*
X149119Y75174D02*
X148806Y74862D01*
X148181Y74549D01*
X147244D01*
X146619Y74862D01*
X146306Y75174D01*
X145994Y75799D01*
Y77049D01*
X146306Y77674D01*
X146619Y77987D01*
X147244Y78299D01*
X148181D01*
X148806Y77987D01*
X149119Y77674D01*
X153494Y74549D02*
X150994D01*
X153181Y76737D01*
X153494Y77362D01*
X153181Y77987D01*
X152556Y78299D01*
X151619D01*
X150994Y77987D01*
X141702Y142089D02*
Y145839D01*
X143890D01*
X144515Y145526D01*
X144828Y144901D01*
X144515Y144276D01*
X143890Y143964D01*
X141702D01*
X143890D02*
X144828Y142089D01*
X147328D02*
X148578D01*
X147952D02*
Y145839D01*
X147328Y145214D01*
X154202Y142089D02*
X151702D01*
X153890Y144276D01*
X154202Y144901D01*
X153890Y145526D01*
X153265Y145839D01*
X152328D01*
X151702Y145526D01*
X141702Y151144D02*
Y154894D01*
X143890D01*
X144515Y154581D01*
X144828Y153956D01*
X144515Y153331D01*
X143890Y153019D01*
X141702D01*
X143890D02*
X144828Y151144D01*
X147328D02*
X148578D01*
X147952D02*
Y154894D01*
X147328Y154269D01*
X152328Y151144D02*
X153578D01*
X152952D02*
Y154894D01*
X152328Y154269D01*
X141702Y158230D02*
Y161980D01*
X143890D01*
X144515Y161668D01*
X144828Y161043D01*
X144515Y160418D01*
X143890Y160106D01*
X141702D01*
X143890D02*
X144828Y158230D01*
X147328D02*
X148578D01*
X147952D02*
Y161980D01*
X147328Y161356D01*
X152015Y158543D02*
X152640Y158230D01*
X153265D01*
X153890Y158543D01*
X154202Y159168D01*
X153890Y159793D01*
X153265Y160106D01*
X152640D01*
X153265D02*
X153890Y160418D01*
X154202Y161043D01*
X153890Y161668D01*
X153265Y161980D01*
X152640D01*
X152015Y161668D01*
X149052Y120821D02*
X148740Y121134D01*
X148427Y121759D01*
Y122696D01*
X148740Y123321D01*
X149052Y123634D01*
X149677Y123946D01*
X150927D01*
X151552Y123634D01*
X151865Y123321D01*
X152177Y122696D01*
Y121759D01*
X151865Y121134D01*
X151552Y120821D01*
X148427Y116446D02*
Y118946D01*
X150615Y116759D01*
X151240Y116446D01*
X151865Y116759D01*
X152177Y117384D01*
Y118321D01*
X151865Y118946D01*
X148740Y113634D02*
X148427Y113009D01*
Y112384D01*
X148740Y111759D01*
X149365Y111446D01*
X151240D01*
X151865Y111759D01*
X152177Y112384D01*
Y113009D01*
X151865Y113634D01*
X151240Y113946D01*
X149365D01*
X148740Y113634D01*
X151865Y111759D01*
X149813Y133240D02*
Y129490D01*
X152938D01*
X157313D02*
X154813D01*
X157000Y131678D01*
X157313Y132303D01*
X157000Y132928D01*
X156375Y133240D01*
X155438D01*
X154813Y132928D01*
X155772Y37044D02*
X155460Y36732D01*
X154835Y36419D01*
X153897D01*
X153272Y36732D01*
X152960Y37044D01*
X152647Y37669D01*
Y38919D01*
X152960Y39544D01*
X153272Y39857D01*
X153897Y40169D01*
X154835D01*
X155460Y39857D01*
X155772Y39544D01*
X158272Y36419D02*
X159522D01*
X158897D02*
Y40169D01*
X158272Y39544D01*
X162647Y37357D02*
X162960Y37982D01*
X163585Y38294D01*
X164210D01*
X164835Y37982D01*
X165147Y37357D01*
X164835Y36732D01*
X164210Y36419D01*
X163585D01*
X162960Y36732D01*
X162647Y37357D01*
Y38294D01*
X162960Y39232D01*
X163585Y39857D01*
X164210Y40169D01*
X155772Y44604D02*
X155460Y44291D01*
X154835Y43978D01*
X153897D01*
X153272Y44291D01*
X152960Y44604D01*
X152647Y45228D01*
Y46478D01*
X152960Y47104D01*
X153272Y47416D01*
X153897Y47728D01*
X154835D01*
X155460Y47416D01*
X155772Y47104D01*
X158272Y43978D02*
X159522D01*
X158897D02*
Y47728D01*
X158272Y47104D01*
X162647Y44291D02*
X163272Y43978D01*
X164210D01*
X164835Y44291D01*
X165147Y44916D01*
Y45228D01*
X164835Y45854D01*
X164210Y46166D01*
X162647D01*
Y47728D01*
X165147D01*
X153706Y94175D02*
Y110175D01*
X146706D01*
Y94175D01*
X153706D01*
X157084Y120624D02*
X156771Y120937D01*
X156459Y121562D01*
Y122500D01*
X156771Y123124D01*
X157084Y123437D01*
X157709Y123750D01*
X158959D01*
X159584Y123437D01*
X159896Y123124D01*
X160209Y122500D01*
Y121562D01*
X159896Y120937D01*
X159584Y120624D01*
X156459Y118124D02*
Y116874D01*
Y117500D02*
X160209D01*
X159584Y118124D01*
X156459Y112812D02*
X156771Y112187D01*
X157396Y111562D01*
X158334Y111250D01*
X159271D01*
X159896Y111562D01*
X160209Y112187D01*
Y112812D01*
X159896Y113437D01*
X159271Y113750D01*
X158646Y113437D01*
X158334Y112812D01*
Y112187D01*
X158646Y111562D01*
X159271Y111250D01*
X160836Y89933D02*
X162399Y86183D01*
X163961Y89933D01*
X166461Y86183D02*
X167711D01*
X167086D02*
Y89933D01*
X166461Y89308D01*
X161580Y94175D02*
Y110175D01*
X154580D01*
Y94175D01*
X161580D01*
X169854Y72647D02*
X166104D01*
Y69522D01*
X166417Y67335D02*
X166104Y66710D01*
Y66085D01*
X166417Y65460D01*
X167042Y65147D01*
X167667Y65460D01*
X167980Y66085D01*
Y66710D01*
Y66085D02*
X168292Y65460D01*
X168917Y65147D01*
X169542Y65460D01*
X169854Y66085D01*
Y66710D01*
X169542Y67335D01*
X169822Y113986D02*
X170135Y114611D01*
Y115548D01*
X169822Y116173D01*
X169197Y116486D01*
X168885D01*
X168260Y116173D01*
X167947Y115548D01*
Y113986D01*
X166385D01*
Y116486D01*
Y118986D02*
X170135Y120548D01*
X166385Y122111D01*
D02*
D133*
X21742Y65679D02*
Y35679D01*
X31742D01*
Y65679D01*
X21742D01*
X31663Y128750D02*
Y148750D01*
X21663D01*
Y128750D01*
X31663D01*
X31742Y67844D02*
Y87844D01*
X21742D01*
Y67844D01*
X31742D01*
X59380Y146545D02*
Y126545D01*
X69380D01*
Y146545D01*
X59380D01*
X135049Y17883D02*
X155049D01*
Y27883D01*
X135049D01*
Y17883D01*
X139301Y83002D02*
X159301D01*
Y93002D01*
X139301D01*
Y83002D01*
X162529Y111899D02*
Y91899D01*
X172529D01*
Y111899D01*
X162529D01*
D02*
D134*
X72785Y73218D02*
G75*
G02*
X71801I-492J0D01*
G01*
X72785D02*
G75*
G02*
X71801I-492J0D01*
G01*
G75*
G02*
X72785I492J0D01*
G01*
X154498Y72057D02*
G75*
G02*
Y73041I0J492D01*
G01*
Y72057D02*
G75*
G02*
Y73041I0J492D01*
G01*
G75*
G02*
Y72057I0J-492D01*
G01*
X0Y0D02*
M02*
