G04 DesignSpark PCB Gerber Version 10.0 Build 5299*
G04 #@! TF.Part,Single*
G04 #@! TF.FileFunction,Paste,Top*
G04 #@! TF.FilePolarity,Positive*
%FSLAX35Y35*%
%MOIN*%
G04 #@! TA.AperFunction,SMDPad,CuDef*
%ADD100R,0.00584X0.02356*%
%ADD90R,0.00781X0.02553*%
%ADD95R,0.00781X0.02750*%
%ADD104R,0.00978X0.01962*%
%ADD105R,0.01175X0.01962*%
%ADD101R,0.01175X0.03537*%
%ADD89R,0.04009X0.04403*%
%ADD86R,0.05100X0.05600*%
%ADD96R,0.10624X0.10624*%
%ADD92R,0.10820X0.10820*%
%ADD98R,0.02356X0.00584*%
%ADD99R,0.02356X0.00781*%
%ADD91R,0.02553X0.00781*%
%ADD94R,0.02750X0.00781*%
%ADD97R,0.02356X0.01175*%
%ADD102R,0.02750X0.01175*%
%ADD103R,0.09049X0.01175*%
%ADD106R,0.07277X0.02159*%
%ADD93R,0.06687X0.03931*%
%ADD87R,0.05600X0.05100*%
%ADD88R,0.12986X0.09049*%
G04 #@! TD.AperFunction*
X0Y0D02*
D02*
D86*
X31702Y109092D03*
Y118092D03*
X39261Y109092D03*
Y118092D03*
X41781Y76336D03*
Y85336D03*
X47372Y109092D03*
Y118092D03*
X54931Y109092D03*
Y118092D03*
X62490Y109092D03*
Y118092D03*
X70049Y109092D03*
Y118092D03*
X76742Y22872D03*
Y31872D03*
X77608Y109092D03*
Y118092D03*
X88395Y85844D03*
Y94844D03*
X95876Y85844D03*
Y94844D03*
X107293Y61218D03*
Y70218D03*
X112805Y144131D03*
Y153131D03*
X114380Y127202D03*
Y136202D03*
X114852Y61218D03*
Y70218D03*
X120285Y144131D03*
Y153131D03*
X122411Y61218D03*
Y70218D03*
X129970Y61218D03*
Y70218D03*
X150206Y97675D03*
Y106675D03*
X158080Y97675D03*
Y106675D03*
D02*
D87*
X52242Y32844D03*
Y40344D03*
Y47844D03*
Y57844D03*
Y67844D03*
Y85344D03*
X61242Y32844D03*
Y40344D03*
Y47844D03*
Y57844D03*
Y67844D03*
Y85344D03*
X90490Y130128D03*
X95234Y38002D03*
Y45561D03*
Y53120D03*
X99490Y130128D03*
X104234Y38002D03*
Y45561D03*
Y53120D03*
X127990Y143907D03*
Y152962D03*
Y160443D03*
X136990Y143907D03*
Y152962D03*
Y160443D03*
X138069Y37844D03*
Y45344D03*
X147069Y37844D03*
Y45344D03*
D02*
D88*
X114380Y87608D03*
Y110443D03*
D02*
D89*
X86230Y112017D03*
X98435D03*
D02*
D90*
X143671Y55324D03*
Y71072D03*
X145639Y55324D03*
Y71072D03*
X147608Y55324D03*
Y71072D03*
X149576Y55324D03*
Y71072D03*
X151545Y55324D03*
Y71072D03*
D02*
D91*
X139734Y59261D03*
Y61230D03*
Y63198D03*
Y65167D03*
Y67135D03*
X155482Y59261D03*
Y61230D03*
Y63198D03*
Y65167D03*
Y67135D03*
D02*
D92*
X147608Y63198D03*
D02*
D93*
X167923Y50600D03*
Y60836D03*
D02*
D94*
X73868Y60423D03*
Y62391D03*
Y64360D03*
Y66328D03*
Y68297D03*
Y70265D03*
X89616Y60423D03*
Y62391D03*
Y64360D03*
Y66328D03*
Y68297D03*
Y70265D03*
D02*
D95*
X76820Y57470D03*
Y73218D03*
X78789Y57470D03*
Y73218D03*
X80757Y57470D03*
Y73218D03*
X82726Y57470D03*
Y73218D03*
X84694Y57470D03*
Y73218D03*
X86663Y57470D03*
Y73218D03*
D02*
D96*
X81742Y65344D03*
D02*
D97*
X103848Y139380D03*
Y148435D03*
D02*
D98*
Y141840D03*
Y145974D03*
D02*
D99*
Y143907D03*
D02*
D100*
X99025Y137608D03*
Y150206D03*
X100994Y137608D03*
Y150206D03*
D02*
D101*
X94793Y138198D03*
Y149616D03*
D02*
D102*
X89478Y139380D03*
Y148435D03*
D02*
D103*
X92628Y143907D03*
D02*
D104*
X103159Y137411D03*
Y150403D03*
D02*
D105*
X90265Y137411D03*
Y150403D03*
D02*
D106*
X129635Y125403D03*
X144990D03*
X0Y0D02*
M02*
