G04 DesignSpark PCB Gerber Version 10.0 Build 5299*
G04 #@! TF.Part,Single*
G04 #@! TF.FilePolarity,Positive*
%FSLAX35Y35*%
%MOIN*%
G04 #@! TA.AperFunction,ViaDrill*
%ADD140C,0.01575*%
%ADD139C,0.02008*%
%ADD138C,0.02400*%
G04 #@! TA.AperFunction,ComponentDrill*
%ADD142C,0.03500*%
%ADD143C,0.03937*%
%ADD144C,0.04331*%
G04 #@! TA.AperFunction,MechanicalDrill*
%ADD141C,0.11811*%
G04 #@! TD.AperFunction*
X0Y0D02*
D02*
D138*
X45482Y53120D03*
X46525Y62805D03*
X53750Y78553D03*
X78710Y138789D03*
X78868Y148435D03*
X82490Y87214D03*
X84616Y103513D03*
X101387Y75797D03*
X102254Y166506D03*
X110246Y45088D03*
X127765Y136820D03*
D02*
D139*
X43513Y58474D03*
X100994Y59261D03*
D02*
D140*
X77765Y61230D03*
Y63986D03*
Y66742D03*
Y69498D03*
X80521Y61230D03*
Y63986D03*
Y66742D03*
Y69498D03*
X83277Y61230D03*
Y63986D03*
Y66742D03*
Y69498D03*
X86033Y61230D03*
Y63986D03*
Y66742D03*
Y69498D03*
X143513Y59261D03*
Y62017D03*
Y64773D03*
Y67529D03*
X146269Y59261D03*
Y62017D03*
Y64773D03*
Y67529D03*
X149025Y59261D03*
Y62017D03*
Y64773D03*
Y67529D03*
X151781Y59261D03*
Y62017D03*
Y64773D03*
Y67529D03*
D02*
D141*
X29183Y25403D03*
Y161466D03*
X165246Y25403D03*
Y161466D03*
D02*
D142*
X26663Y133750D03*
Y143750D03*
X26742Y40679D03*
Y50679D03*
Y60679D03*
Y72844D03*
Y82844D03*
X64380Y131545D03*
Y141545D03*
X140049Y22883D03*
X144301Y88002D03*
X150049Y22883D03*
X154301Y88002D03*
X167529Y96899D03*
Y106899D03*
D02*
D143*
X111624Y29222D03*
Y52844D03*
X129340Y29222D03*
Y52844D03*
D02*
D144*
X89242Y27844D03*
X99242D03*
X0Y0D02*
M02*
