G04 DesignSpark PCB Gerber Version 10.0 Build 5299*
G04 #@! TF.Part,Single*
G04 #@! TF.FileFunction,Copper,L1,Top*
G04 #@! TF.FilePolarity,Positive*
%FSLAX35Y35*%
%MOIN*%
G04 #@! TA.AperFunction,SMDPad,CuDef*
%ADD79R,0.00984X0.02756*%
%ADD27R,0.01181X0.02953*%
%ADD74R,0.01181X0.03150*%
%ADD83R,0.01378X0.02362*%
%ADD84R,0.01575X0.02362*%
%ADD80R,0.01575X0.03937*%
%ADD26R,0.04409X0.04803*%
%ADD20R,0.05500X0.06000*%
G04 #@! TA.AperFunction,ComponentPad*
%ADD21R,0.06000X0.06000*%
G04 #@! TA.AperFunction,SMDPad,CuDef*
%ADD75R,0.11024X0.11024*%
%ADD29R,0.11220X0.11220*%
G04 #@! TD.AperFunction*
%ADD10C,0.00394*%
%ADD17C,0.00787*%
%ADD13C,0.01181*%
%ADD11C,0.01200*%
%ADD16C,0.01575*%
%ADD12C,0.01969*%
%ADD18C,0.02362*%
%ADD19C,0.03543*%
G04 #@! TA.AperFunction,ViaPad*
%ADD15C,0.04000*%
%ADD14C,0.04409*%
%ADD70C,0.04803*%
G04 #@! TA.AperFunction,ComponentPad*
%ADD23C,0.07000*%
%ADD24C,0.07874*%
G04 #@! TA.AperFunction,WasherPad*
%ADD71C,0.15748*%
G04 #@! TA.AperFunction,SMDPad,CuDef*
%ADD77R,0.02756X0.00984*%
%ADD78R,0.02756X0.01181*%
%ADD28R,0.02953X0.01181*%
%ADD73R,0.03150X0.01181*%
%ADD76R,0.02756X0.01575*%
%ADD81R,0.03150X0.01575*%
%ADD82R,0.09449X0.01575*%
%ADD85R,0.07677X0.02559*%
%ADD72R,0.07087X0.04331*%
%ADD22R,0.06000X0.05500*%
%ADD25R,0.13386X0.09449*%
G04 #@! TD.AperFunction*
X0Y0D02*
D02*
D10*
X77765Y76584D02*
X73828D01*
X71466Y78946D01*
Y83671D01*
X63986Y91151D01*
X58868D01*
X51781Y98238D01*
Y100994D01*
X54143Y103356D01*
X79340D01*
X81702Y100994D01*
Y92332D01*
X78946Y89576D01*
Y77765D01*
X77765Y76584D01*
G36*
X77765Y76584D02*
X73828D01*
X71466Y78946D01*
Y83671D01*
X63986Y91151D01*
X58868D01*
X51781Y98238D01*
Y100994D01*
X54143Y103356D01*
X79340D01*
X81702Y100994D01*
Y92332D01*
X78946Y89576D01*
Y77765D01*
X77765Y76584D01*
G37*
X89576Y67923D02*
Y70679D01*
X100994D01*
X101781Y69891D01*
Y68710D01*
X100994Y67923D01*
X89576D01*
G36*
X89576Y67923D02*
Y70679D01*
X100994D01*
X101781Y69891D01*
Y68710D01*
X100994Y67923D01*
X89576D01*
G37*
X89655Y66742D02*
Y63986D01*
X101466D01*
X102254Y64773D01*
Y65876D01*
X101387Y66742D01*
X89655D01*
G36*
X89655Y66742D02*
Y63986D01*
X101466D01*
X102254Y64773D01*
Y65876D01*
X101387Y66742D01*
X89655D01*
G37*
X97214Y163986D02*
Y153907D01*
X99734D01*
X102254Y156427D01*
Y163986D01*
X97214D01*
G36*
X97214Y163986D02*
Y153907D01*
X99734D01*
X102254Y156427D01*
Y163986D01*
X97214D01*
G37*
X129340Y29222D02*
Y22883D01*
X137214Y49813D02*
X149419D01*
X150206Y50600D01*
Y52569D01*
X149655Y53120D01*
X145088D01*
X144301Y52332D01*
X142569D01*
X142017Y51781D01*
X139183D01*
X137214Y49813D01*
G36*
X137214Y49813D02*
X149419D01*
X150206Y50600D01*
Y52569D01*
X149655Y53120D01*
X145088D01*
X144301Y52332D01*
X142569D01*
X142017Y51781D01*
X139183D01*
X137214Y49813D01*
G37*
D02*
D11*
X19104Y15324D02*
X175324D01*
Y172805D01*
X19104D01*
Y15324D01*
X21091Y156960D02*
Y29909D01*
G75*
G02*
X38444Y25403I8091J-4506D01*
G01*
G75*
G02*
X33689Y17312I-9261J0D01*
G01*
X160740D01*
G75*
G02*
X155984Y25403I4506J8091D01*
G01*
G75*
G02*
X173337Y29909I9261J0D01*
G01*
Y156960D01*
G75*
G02*
X155984Y161466I-8091J4506D01*
G01*
G75*
G02*
X173337Y165972I9261J0D01*
G01*
Y170817D01*
X21091D01*
Y165972D01*
G75*
G02*
X38444Y161466I8091J-4506D01*
G01*
G75*
G02*
X21091Y156960I-9261J0D01*
G01*
X168326Y64387D02*
X172852D01*
Y57285D01*
X164783D01*
Y56931D01*
X167563Y54151D01*
X172852D01*
Y47049D01*
X162994D01*
Y53126D01*
X161408Y54711D01*
G75*
G02*
X160837Y55908I1396J1400D01*
G01*
X158735Y53806D01*
G75*
G02*
X157696Y53198I-1679J1676D01*
G01*
Y51387D01*
G75*
G02*
X157000Y49709I-2372J0D01*
G01*
X151454Y44163D01*
Y33706D01*
X149440D01*
Y27269D01*
X154435D01*
Y18498D01*
X145663D01*
Y23915D01*
X145393Y24185D01*
G75*
G02*
X144697Y25864I1676J1678D01*
G01*
Y33706D01*
X142683D01*
Y48228D01*
X142454D01*
Y36764D01*
G75*
G02*
X142617Y35864I-2406J-900D01*
G01*
G75*
G02*
Y35863I-1147J0D01*
G01*
G75*
G02*
Y35860I-907J-1D01*
G01*
Y27269D01*
X144435D01*
Y18498D01*
X135663D01*
Y27269D01*
X137480D01*
Y33706D01*
X133683D01*
Y49482D01*
X135530D01*
G75*
G02*
X135633Y49907I2538J-389D01*
G01*
G75*
G02*
X136094Y50933I1581J-95D01*
G01*
X138063Y52901D01*
G75*
G02*
X139185Y53365I1120J-1120D01*
G01*
X139344D01*
G75*
G02*
X138511Y53885I705J2057D01*
G01*
X138196Y54200D01*
G75*
G02*
X137559Y55738I1538J1538D01*
G01*
Y57285D01*
X136872D01*
Y62258D01*
X134156Y59543D01*
G75*
G02*
X134108Y59495I-1685J1678D01*
G01*
Y56832D01*
X132165D01*
G75*
G02*
X129340Y47957I-2825J-3988D01*
G01*
G75*
G02*
X126515Y56832I0J4887D01*
G01*
X114449D01*
G75*
G02*
X115570Y55728I-2825J-3987D01*
G01*
X117132D01*
G75*
G02*
X118534Y55148I4J-1978D01*
G01*
X122078Y51605D01*
G75*
G02*
X122657Y50206I-1399J-1398D01*
G01*
G75*
G02*
Y50203I-810J-2D01*
G01*
Y34458D01*
G75*
G02*
X122075Y33057I-1978J0D01*
G01*
X116843Y27826D01*
G75*
G02*
X116148Y27374I-1400J1396D01*
G01*
G75*
G02*
X106736Y29222I-4525J1848D01*
G01*
G75*
G02*
X115552Y32129I4887J0D01*
G01*
X118701Y35278D01*
Y49387D01*
X116378Y51710D01*
G75*
G02*
X112021Y47973I-4754J1134D01*
G01*
G75*
G02*
X108620Y42117I-1776J-2885D01*
G01*
Y33864D01*
X106802D01*
Y32836D01*
G75*
G02*
X106048Y31017I-2569J0D01*
G01*
X104356Y29326D01*
G75*
G02*
X102302Y23487I-5114J-1481D01*
G01*
Y22883D01*
G75*
G02*
X101548Y21065I-2569J0D01*
G01*
X99033Y18550D01*
G75*
G02*
X97214Y17795I-1819J1814D01*
G01*
X84616D01*
G75*
G02*
X82797Y18550I0J2569D01*
G01*
X81044Y20303D01*
X80880D01*
Y18486D01*
X72604D01*
Y27257D01*
X80880D01*
Y25440D01*
X82108D01*
G75*
G02*
X83927Y24685I0J-2569D01*
G01*
X85680Y22932D01*
X87187D01*
G75*
G02*
X83917Y27844I2055J4912D01*
G01*
G75*
G02*
X91339Y32738I5324J0D01*
G01*
X92464Y33864D01*
X90848D01*
Y43504D01*
X88789D01*
G75*
G02*
X87388Y44085I0J1978D01*
G01*
X84704Y46770D01*
Y46328D01*
G75*
G02*
X84122Y44928I-1978J0D01*
G01*
X78720Y39525D01*
Y36257D01*
X80880D01*
Y27486D01*
X72604D01*
Y36257D01*
X74764D01*
Y40344D01*
G75*
G02*
X74778Y40583I1978J0D01*
G01*
X65643Y31448D01*
G75*
G02*
X65628Y31433I-1408J1393D01*
G01*
Y28706D01*
X56856D01*
Y51142D01*
X56628D01*
Y28706D01*
X47856D01*
Y45472D01*
X43513D01*
G75*
G02*
X41835Y46169I0J2372D01*
G01*
X39082Y48922D01*
G75*
G02*
X38386Y50600I1676J1678D01*
G01*
Y55718D01*
G75*
G02*
X39082Y57396I2372J0D01*
G01*
X40126Y58441D01*
G75*
G02*
Y58474I3378J17D01*
G01*
G75*
G02*
Y58507I3378J17D01*
G01*
X38688Y59945D01*
G75*
G02*
X37992Y61624I1676J1678D01*
G01*
Y65167D01*
G75*
G02*
X38688Y66845I2372J0D01*
G01*
X41363Y69520D01*
G75*
G02*
X43041Y70216I1678J-1676D01*
G01*
X47856D01*
Y71250D01*
X46562Y72544D01*
G75*
G02*
X45919Y73725I1676J1679D01*
G01*
Y71950D01*
X41028D01*
X40105Y71028D01*
G75*
G02*
X38285Y70276I-1816J1816D01*
G01*
X31128D01*
Y68458D01*
X22356D01*
Y77230D01*
X31128D01*
Y75413D01*
X37225D01*
X37643Y75831D01*
Y80722D01*
X45866D01*
Y80754D01*
X37446D01*
Y89919D01*
X44449D01*
Y92452D01*
X32195Y104706D01*
X27565D01*
Y106847D01*
G75*
G02*
X26650Y107417I764J2246D01*
G01*
X23334Y110733D01*
G75*
G02*
X22638Y112411I1676J1678D01*
G01*
Y129364D01*
X22277D01*
Y138135D01*
X31049D01*
Y129364D01*
X27381D01*
Y113393D01*
X27565Y113210D01*
Y113478D01*
X81746D01*
Y111464D01*
X82322D01*
X82639Y111781D01*
Y115805D01*
X83858D01*
Y117452D01*
X81746Y119565D01*
Y113706D01*
X27565D01*
Y122478D01*
X36693D01*
Y136072D01*
X31820Y140945D01*
X31049D01*
Y139364D01*
X22277D01*
Y148135D01*
X31049D01*
Y146082D01*
X32883D01*
G75*
G02*
X34702Y145327I0J-2569D01*
G01*
X41075Y138954D01*
G75*
G02*
X41830Y137135I-1814J-1819D01*
G01*
Y122478D01*
X78833D01*
X73555Y127756D01*
X68765D01*
Y127159D01*
X59994D01*
Y135931D01*
X68765D01*
Y132499D01*
X74537D01*
G75*
G02*
X74998Y132454I0J-2372D01*
G01*
X70342Y137111D01*
G75*
G02*
X69646Y138789I1676J1678D01*
G01*
Y142726D01*
G75*
G02*
X69780Y143513I2372J0D01*
G01*
X68765Y142498D01*
Y137159D01*
X59994D01*
Y145931D01*
X65490D01*
X76953Y157394D01*
G75*
G02*
X78631Y158090I1678J-1676D01*
G01*
X92726D01*
G75*
G02*
X94404Y157394I0J-2372D01*
G01*
X95630Y156168D01*
Y163986D01*
G75*
G02*
X97214Y165570I1584J0D01*
G01*
X98582D01*
G75*
G02*
X98465Y166506I3672J935D01*
G01*
G75*
G02*
X106043I3789J0D01*
G01*
G75*
G02*
X104807Y163706I-3789J0D01*
G01*
G75*
G02*
X104067Y162167I-2553J280D01*
G01*
X103838Y161938D01*
Y156635D01*
X107073Y159870D01*
G75*
G02*
X108474Y160452I1401J-1396D01*
G01*
X123604D01*
Y164580D01*
X132376D01*
Y148824D01*
X124423D01*
Y148746D01*
X110058D01*
Y148517D01*
X124423D01*
Y148045D01*
X132376D01*
Y139769D01*
X130144D01*
G75*
G02*
X130735Y134468I-2379J-2949D01*
G01*
X134618D01*
Y139769D01*
X132604D01*
Y148045D01*
X134618D01*
Y148824D01*
X132604D01*
Y164580D01*
X141376D01*
Y148824D01*
X139361D01*
Y148045D01*
X141376D01*
Y139769D01*
X139361D01*
Y134385D01*
X139972Y133774D01*
G75*
G02*
X139975Y133772I-1878J-1881D01*
G01*
X140023Y133724D01*
X145678Y128069D01*
X150214D01*
Y123533D01*
X151882Y121865D01*
G75*
G02*
X152578Y120187I-1676J-1678D01*
G01*
Y111061D01*
X162218D01*
Y109271D01*
X163143D01*
Y111285D01*
X171915D01*
Y102513D01*
X163143D01*
Y104528D01*
X162218D01*
Y102289D01*
X146069D01*
Y111061D01*
X147835D01*
Y119204D01*
X144301Y122738D01*
X139765D01*
Y127274D01*
X137315Y129724D01*
X127567D01*
X125911Y128069D01*
X134860D01*
Y122738D01*
X131190D01*
G75*
G02*
X131016Y122544I-1850J1484D01*
G01*
X125113Y116641D01*
G75*
G02*
X123435Y115945I-1678J1676D01*
G01*
X122458D01*
Y104332D01*
X106301D01*
Y108465D01*
X102025D01*
Y108230D01*
X97854D01*
Y99230D01*
X100013D01*
Y96975D01*
G75*
G02*
X100818Y96487I-594J-1887D01*
G01*
X102393Y94912D01*
G75*
G02*
X102972Y93513I-1399J-1398D01*
G01*
G75*
G02*
Y93510I-810J-2D01*
G01*
Y82096D01*
G75*
G02*
X102390Y80695I-1978J0D01*
G01*
X101279Y79584D01*
G75*
G02*
X105176Y75797I108J-3787D01*
G01*
G75*
G02*
X105173Y75643I-3791J1D01*
G01*
X106213Y74604D01*
X133268D01*
Y74606D01*
X123435D01*
G75*
G02*
X121756Y75302I0J2372D01*
G01*
X115561Y81498D01*
X106301D01*
Y93718D01*
X122458D01*
Y81498D01*
X122269D01*
X124417Y79350D01*
X133268D01*
G75*
G02*
X133964Y81019I2372J-10D01*
G01*
X139915Y86970D01*
Y92387D01*
X148687D01*
Y83616D01*
X143269D01*
X138011Y78358D01*
Y76589D01*
G75*
G02*
Y76584I-2386J-2D01*
G01*
G75*
G02*
Y76580I-2386J-2D01*
G01*
Y74041D01*
G75*
G02*
X138058Y74089I1725J-1635D01*
G01*
X143016Y79047D01*
G75*
G02*
X144694Y79743I1678J-1676D01*
G01*
X151193D01*
X152165Y80716D01*
Y83616D01*
X149915D01*
Y92387D01*
X158687D01*
Y83616D01*
X156909D01*
Y79734D01*
G75*
G02*
X156213Y78056I-2372J0D01*
G01*
X154751Y76594D01*
X159655D01*
G75*
G02*
X161056Y76012I0J-1978D01*
G01*
X167744Y69324D01*
G75*
G02*
X168326Y67923I-1396J-1401D01*
G01*
Y64387D01*
X163143Y101285D02*
X171915D01*
Y92513D01*
X163143D01*
Y95106D01*
X162218D01*
Y93289D01*
X146069D01*
Y102061D01*
X162218D01*
Y100243D01*
X163143D01*
Y101285D01*
X124453Y29222D02*
G75*
G02*
X134228I4887J0D01*
G01*
G75*
G02*
X124453I-4887J0D01*
G01*
X22159Y87427D02*
X31324D01*
Y78261D01*
X22159D01*
Y87427D01*
X22356Y45065D02*
X31128D01*
Y36293D01*
X22356D01*
Y45065D01*
Y55065D02*
X31128D01*
Y46293D01*
X22356D01*
Y55065D01*
Y65065D02*
X31128D01*
Y56293D01*
X22356D01*
Y65065D01*
X38444Y25403D02*
G36*
X38444Y25403D02*
G75*
G02*
X34628Y17912I-9261J0D01*
G01*
X83850D01*
G75*
G02*
X82797Y18550I765J2451D01*
G01*
X81044Y20303D01*
X80880D01*
Y18486D01*
X72604D01*
Y27257D01*
X80880D01*
Y25440D01*
X82108D01*
G75*
G02*
X83927Y24685I0J-2568D01*
G01*
X85680Y22932D01*
X87187D01*
G75*
G02*
X83917Y27844I2055J4912D01*
G01*
G75*
G02*
X84099Y29222I5325J0D01*
G01*
X80880D01*
Y27486D01*
X72604D01*
Y29222D01*
X65628D01*
Y28706D01*
X56856D01*
Y29222D01*
X56628D01*
Y28706D01*
X47856D01*
Y29222D01*
X37620D01*
G75*
G02*
X38444Y25403I-8437J-3819D01*
G01*
G37*
X99033Y18550D02*
G36*
X99033Y18550D02*
G75*
G02*
X97980Y17912I-1819J1813D01*
G01*
X159800D01*
G75*
G02*
X155984Y25403I5446J7491D01*
G01*
G75*
G02*
X156808Y29222I9261J0D01*
G01*
X149440D01*
Y27269D01*
X154435D01*
Y18498D01*
X145663D01*
Y23915D01*
X145393Y24185D01*
G75*
G02*
X144697Y25864I1677J1679D01*
G01*
Y29222D01*
X142617D01*
Y27269D01*
X144435D01*
Y18498D01*
X135663D01*
Y27269D01*
X137480D01*
Y29222D01*
X134228D01*
G75*
G02*
X124453I-4887J0D01*
G01*
X118240D01*
X116843Y27826D01*
G75*
G02*
X116148Y27374I-1405J1404D01*
G01*
G75*
G02*
X106736Y29222I-4525J1848D01*
G01*
X104385D01*
G75*
G02*
X104566Y27844I-5143J-1378D01*
G01*
G75*
G02*
X102302Y23487I-5324J0D01*
G01*
Y22883D01*
Y22883D01*
G75*
G02*
X101548Y21065I-2568J0D01*
G01*
X99033Y18550D01*
G37*
X21691Y40679D02*
G36*
X21691Y40679D02*
Y30848D01*
G75*
G02*
X37620Y29222I7491J-5445D01*
G01*
X47856D01*
Y40679D01*
X31128D01*
Y36293D01*
X22356D01*
Y40679D01*
X21691D01*
G37*
X56628D02*
G36*
X56628Y40679D02*
Y29222D01*
X56856D01*
Y40679D01*
X56628D01*
G37*
X65628Y31433D02*
G36*
X65628Y31433D02*
Y29222D01*
X72604D01*
Y36257D01*
X74764D01*
Y40344D01*
G75*
G02*
Y40348I1897J2D01*
G01*
G75*
G02*
X74778Y40583I1916J0D01*
G01*
X65643Y31448D01*
X65628Y31433D01*
G37*
X78720Y39525D02*
G36*
X78720Y39525D02*
Y36257D01*
X80880D01*
Y29222D01*
X84099D01*
G75*
G02*
X91339Y32738I5143J-1378D01*
G01*
X92464Y33864D01*
X90848D01*
Y40679D01*
X79874D01*
X78720Y39525D01*
G37*
X104356Y29326D02*
G36*
X104356Y29326D02*
G75*
G02*
X104385Y29222I-5117J-1476D01*
G01*
X106736D01*
Y29222D01*
G75*
G02*
X115552Y32129I4887J0D01*
G01*
X118701Y35278D01*
Y40679D01*
X108620D01*
Y33864D01*
X106802D01*
Y32836D01*
Y32836D01*
G75*
G02*
X106048Y31017I-2568J0D01*
G01*
X104356Y29326D01*
G37*
X122075Y33057D02*
G36*
X122075Y33057D02*
X118240Y29222D01*
X124453D01*
G75*
G02*
X134228I4887J0D01*
G01*
X137480D01*
Y33706D01*
X133683D01*
Y40679D01*
X122657D01*
Y34458D01*
G75*
G02*
X122075Y33057I-1979J0D01*
G01*
G37*
X142454Y40679D02*
G36*
X142454Y40679D02*
Y36764D01*
G75*
G02*
X142617Y35865I-2398J-899D01*
G01*
G75*
G02*
Y35864I-2256J0D01*
G01*
Y35863D01*
Y35860D01*
Y29222D01*
X144697D01*
Y33706D01*
X142683D01*
Y40679D01*
X142454D01*
G37*
X149440Y33706D02*
G36*
X149440Y33706D02*
Y29222D01*
X156808D01*
G75*
G02*
X172737Y30848I8437J-3819D01*
G01*
Y40679D01*
X151454D01*
Y33706D01*
X149440D01*
G37*
X21691Y50679D02*
G36*
X21691Y50679D02*
Y40679D01*
X22356D01*
Y45065D01*
X31128D01*
Y40679D01*
X47856D01*
Y45472D01*
X43513D01*
G75*
G02*
X41835Y46169I1J2374D01*
G01*
X39082Y48922D01*
G75*
G02*
X38386Y50600I1677J1679D01*
G01*
Y50679D01*
X31128D01*
Y46293D01*
X22356D01*
Y50679D01*
X21691D01*
G37*
X56628D02*
G36*
X56628Y50679D02*
Y40679D01*
X56856D01*
Y50679D01*
X56628D01*
G37*
X84122Y44928D02*
G36*
X84122Y44928D02*
X79874Y40679D01*
X90848D01*
Y43504D01*
X88789D01*
G75*
G02*
X87388Y44085I0J1979D01*
G01*
X84704Y46770D01*
Y46328D01*
G75*
G02*
X84122Y44928I-1979J0D01*
G01*
G37*
X108620Y42117D02*
G36*
X108620Y42117D02*
Y40679D01*
X118701D01*
Y49387D01*
X117409Y50679D01*
X116005D01*
G75*
G02*
X112021Y47973I-4381J2165D01*
G01*
G75*
G02*
X113633Y45088I-1776J-2885D01*
G01*
G75*
G02*
X108620Y42117I-3387J0D01*
G01*
G37*
X122657Y50203D02*
G36*
X122657Y50203D02*
Y40679D01*
X133683D01*
Y49482D01*
X135530D01*
G75*
G02*
X135633Y49907I2482J-375D01*
G01*
G75*
G02*
X135888Y50679I1581J-95D01*
G01*
X133722D01*
G75*
G02*
X129340Y47957I-4381J2166D01*
G01*
G75*
G02*
X124959Y50679I0J4888D01*
G01*
X122600D01*
G75*
G02*
X122657Y50207I-1920J-472D01*
G01*
G75*
G02*
Y50206I-2148J0D01*
G01*
Y50206D01*
Y50203D01*
G37*
X142454Y48228D02*
G36*
X142454Y48228D02*
Y40679D01*
X142683D01*
Y48228D01*
X142454D01*
G37*
X151454Y44163D02*
G36*
X151454Y44163D02*
Y40679D01*
X172737D01*
Y47049D01*
X162994D01*
Y50679D01*
X157587D01*
G75*
G02*
X157000Y49709I-2266J710D01*
G01*
X151454Y44163D01*
G37*
X21691Y60679D02*
G36*
X21691Y60679D02*
Y50679D01*
X22356D01*
Y55065D01*
X31128D01*
Y50679D01*
X38386D01*
Y55718D01*
G75*
G02*
X39082Y57396I2374J-1D01*
G01*
X40126Y58441D01*
Y58474D01*
Y58507D01*
X38688Y59945D01*
G75*
G02*
X38189Y60679I1677J1679D01*
G01*
X31128D01*
Y56293D01*
X22356D01*
Y60679D01*
X21691D01*
G37*
X56628Y51142D02*
G36*
X56628Y51142D02*
Y50679D01*
X56856D01*
Y51142D01*
X56628D01*
G37*
X114449Y56832D02*
G36*
X114449Y56832D02*
G75*
G02*
X115570Y55728I-2833J-3996D01*
G01*
X117132D01*
G75*
G02*
X118534Y55148I5J-1976D01*
G01*
X122078Y51605D01*
G75*
G02*
X122600Y50679I-1398J-1398D01*
G01*
X124959D01*
G75*
G02*
X124453Y52844I4381J2165D01*
G01*
G75*
G02*
X126515Y56832I4888J0D01*
G01*
X114449D01*
G37*
X116378Y51710D02*
G36*
X116378Y51710D02*
G75*
G02*
X116005Y50679I-4754J1133D01*
G01*
X117409D01*
X116378Y51710D01*
G37*
X134108Y56832D02*
G36*
X134108Y56832D02*
X132165D01*
G75*
G02*
X134228Y52844I-2826J-3988D01*
G01*
G75*
G02*
X133722Y50679I-4887J0D01*
G01*
X135888D01*
G75*
G02*
X136094Y50933I1326J-867D01*
G01*
X138063Y52901D01*
G75*
G02*
X139185Y53365I1121J-1122D01*
G01*
X139344D01*
G75*
G02*
X138511Y53885I707J2060D01*
G01*
X138196Y54200D01*
G75*
G02*
X137559Y55738I1540J1539D01*
G01*
Y57285D01*
X136872D01*
Y60679D01*
X135293D01*
X134156Y59543D01*
G75*
G02*
X134108Y59495I-2931J2957D01*
G01*
Y56832D01*
G37*
X157696Y51387D02*
G36*
X157696Y51387D02*
G75*
G02*
X157587Y50679I-2375J2D01*
G01*
X162994D01*
Y53126D01*
X161408Y54711D01*
G75*
G02*
X160837Y55908I1393J1399D01*
G01*
X158735Y53806D01*
G75*
G02*
X157696Y53198I-1678J1674D01*
G01*
Y51387D01*
G37*
X164783Y57285D02*
G36*
X164783Y57285D02*
Y56931D01*
X167563Y54151D01*
X172737D01*
Y57285D01*
X164783D01*
G37*
X21691Y82844D02*
G36*
X21691Y82844D02*
Y60679D01*
X22356D01*
Y65065D01*
X31128D01*
Y60679D01*
X38189D01*
G75*
G02*
X37992Y61624I2176J945D01*
G01*
Y65167D01*
G75*
G02*
X38688Y66845I2374J-1D01*
G01*
X41363Y69520D01*
G75*
G02*
X43041Y70216I1679J-1677D01*
G01*
X47856D01*
Y71250D01*
X46562Y72544D01*
G75*
G02*
X45919Y73725I1678J1680D01*
G01*
Y71950D01*
X41028D01*
X40105Y71028D01*
G75*
G02*
X38285Y70276I-1817J1817D01*
G01*
X31128D01*
Y68458D01*
X22356D01*
Y77230D01*
X31128D01*
Y75413D01*
X37225D01*
X37643Y75831D01*
Y80722D01*
X45866D01*
Y80754D01*
X37446D01*
Y82844D01*
X31324D01*
Y78261D01*
X22159D01*
Y82844D01*
X21691D01*
G37*
X102390Y80695D02*
G36*
X102390Y80695D02*
X101279Y79584D01*
G75*
G02*
X105176Y75797I108J-3787D01*
G01*
G75*
G02*
X105173Y75643I-3746J0D01*
G01*
X106213Y74604D01*
X133268D01*
Y74606D01*
X123435D01*
G75*
G02*
X121756Y75302I1J2374D01*
G01*
X115561Y81498D01*
X106301D01*
Y82844D01*
X102972D01*
Y82096D01*
G75*
G02*
X102390Y80695I-1979J0D01*
G01*
G37*
X122458Y81498D02*
G36*
X122458Y81498D02*
X122269D01*
X124417Y79350D01*
X133268D01*
G75*
G02*
X133964Y81019I2370J-9D01*
G01*
X135789Y82844D01*
X122458D01*
Y81498D01*
G37*
X135293Y60679D02*
G36*
X135293Y60679D02*
X136872D01*
Y62258D01*
X135293Y60679D01*
G37*
X138011Y76580D02*
G36*
X138011Y76580D02*
Y74041D01*
G75*
G02*
X138058Y74089I3004J-2883D01*
G01*
X143016Y79047D01*
G75*
G02*
X144694Y79743I1679J-1677D01*
G01*
X151193D01*
X152165Y80716D01*
Y82844D01*
X142497D01*
X138011Y78358D01*
Y76589D01*
Y76584D01*
Y76580D01*
G37*
X156213Y78056D02*
G36*
X156213Y78056D02*
X154751Y76594D01*
X159655D01*
G75*
G02*
X161056Y76012I0J-1979D01*
G01*
X167744Y69324D01*
G75*
G02*
X168326Y67923I-1397J-1401D01*
G01*
Y64387D01*
X172737D01*
Y82844D01*
X156909D01*
Y79734D01*
G75*
G02*
X156213Y78056I-2374J1D01*
G01*
G37*
X21691Y94045D02*
G36*
X21691Y94045D02*
Y82844D01*
X22159D01*
Y87427D01*
X31324D01*
Y82844D01*
X37446D01*
Y89919D01*
X44449D01*
Y92452D01*
X42856Y94045D01*
X21691D01*
G37*
X102972Y93510D02*
G36*
X102972Y93510D02*
Y82844D01*
X106301D01*
Y93718D01*
X122458D01*
Y82844D01*
X135789D01*
X139915Y86970D01*
Y92387D01*
X148687D01*
Y83616D01*
X143269D01*
X142497Y82844D01*
X152165D01*
Y83616D01*
X149915D01*
Y92387D01*
X158687D01*
Y83616D01*
X156909D01*
Y82844D01*
X172737D01*
Y94045D01*
X171915D01*
Y92513D01*
X163143D01*
Y94045D01*
X162218D01*
Y93289D01*
X146069D01*
Y94045D01*
X102899D01*
G75*
G02*
X102972Y93514I-1904J-530D01*
G01*
G75*
G02*
Y93513I-2148J0D01*
G01*
Y93513D01*
Y93510D01*
G37*
X21691Y156021D02*
G36*
X21691Y156021D02*
Y94045D01*
X42856D01*
X32195Y104706D01*
X27565D01*
Y106847D01*
G75*
G02*
X26650Y107417I764J2246D01*
G01*
X23334Y110733D01*
G75*
G02*
X22638Y112411I1677J1679D01*
G01*
Y129364D01*
X22277D01*
Y138135D01*
X31049D01*
Y129364D01*
X27381D01*
Y113393D01*
X27565Y113210D01*
Y113478D01*
X81746D01*
Y111464D01*
X82322D01*
X82639Y111781D01*
Y115805D01*
X83858D01*
Y117452D01*
X81746Y119565D01*
Y113706D01*
X27565D01*
Y122478D01*
X36693D01*
Y136072D01*
X31820Y140945D01*
X31049D01*
Y139364D01*
X22277D01*
Y148135D01*
X31049D01*
Y146082D01*
X32883D01*
G75*
G02*
X34702Y145327I0J-2568D01*
G01*
X41075Y138954D01*
G75*
G02*
X41830Y137136I-1813J-1819D01*
G01*
Y137135D01*
Y122478D01*
X78833D01*
X73555Y127756D01*
X68765D01*
Y127159D01*
X59994D01*
Y135931D01*
X68765D01*
Y132499D01*
X74537D01*
G75*
G02*
X74998Y132454I-1J-2387D01*
G01*
X70342Y137111D01*
G75*
G02*
X69646Y138789I1677J1679D01*
G01*
Y142726D01*
G75*
G02*
X69780Y143513I2378J-1D01*
G01*
X68765Y142498D01*
Y137159D01*
X59994D01*
Y145931D01*
X65490D01*
X76953Y157394D01*
G75*
G02*
X78631Y158090I1679J-1677D01*
G01*
X92726D01*
G75*
G02*
X94404Y157394I-1J-2374D01*
G01*
X95630Y156168D01*
Y163986D01*
G75*
G02*
X97214Y165570I1584J0D01*
G01*
X98582D01*
G75*
G02*
X98465Y166506I3683J937D01*
G01*
G75*
G02*
X101493Y170217I3789J0D01*
G01*
X32214D01*
G75*
G02*
X38444Y161466I-3031J-8751D01*
G01*
G75*
G02*
X21691Y156021I-9261J0D01*
G01*
G37*
Y170217D02*
G36*
X21691Y170217D02*
Y166911D01*
G75*
G02*
X26151Y170217I7492J-5446D01*
G01*
X21691D01*
G37*
X97854Y108230D02*
G36*
X97854Y108230D02*
Y99230D01*
X100013D01*
Y96975D01*
G75*
G02*
X100818Y96487I-593J-1885D01*
G01*
X102393Y94912D01*
G75*
G02*
X102899Y94045I-1398J-1398D01*
G01*
X146069D01*
Y102061D01*
X162218D01*
Y100243D01*
X163143D01*
Y101285D01*
X171915D01*
Y94045D01*
X172737D01*
Y156021D01*
G75*
G02*
X155984Y161466I-7491J5445D01*
G01*
G75*
G02*
X162214Y170217I9261J0D01*
G01*
X103014D01*
G75*
G02*
X106043Y166506I-761J-3712D01*
G01*
G75*
G02*
X104807Y163706I-3791J1D01*
G01*
G75*
G02*
X104067Y162167I-2555J281D01*
G01*
X103838Y161938D01*
Y156635D01*
X107073Y159870D01*
G75*
G02*
X108474Y160452I1401J-1397D01*
G01*
X123604D01*
Y164580D01*
X132376D01*
Y148824D01*
X124423D01*
Y148746D01*
X110058D01*
Y148517D01*
X124423D01*
Y148045D01*
X132376D01*
Y139769D01*
X130144D01*
G75*
G02*
X131554Y136820I-2379J-2949D01*
G01*
G75*
G02*
X130735Y134468I-3789J0D01*
G01*
X134618D01*
Y139769D01*
X132604D01*
Y148045D01*
X134618D01*
Y148824D01*
X132604D01*
Y164580D01*
X141376D01*
Y148824D01*
X139361D01*
Y148045D01*
X141376D01*
Y139769D01*
X139361D01*
Y134385D01*
X139972Y133774D01*
G75*
G02*
X139975Y133772I-4J-6D01*
G01*
X140023Y133724D01*
X145678Y128069D01*
X150214D01*
Y123533D01*
X151882Y121865D01*
G75*
G02*
X152578Y120187I-1677J-1679D01*
G01*
Y111061D01*
X162218D01*
Y109271D01*
X163143D01*
Y111285D01*
X171915D01*
Y102513D01*
X163143D01*
Y104528D01*
X162218D01*
Y102289D01*
X146069D01*
Y111061D01*
X147835D01*
Y119204D01*
X144301Y122738D01*
X139765D01*
Y127274D01*
X137315Y129724D01*
X127567D01*
X125911Y128069D01*
X134860D01*
Y122738D01*
X131190D01*
G75*
G02*
X131016Y122544I-1768J1410D01*
G01*
X125113Y116641D01*
G75*
G02*
X123435Y115945I-1679J1677D01*
G01*
X122458D01*
Y104332D01*
X106301D01*
Y108465D01*
X102025D01*
Y108230D01*
X97854D01*
G37*
X162218Y95106D02*
G36*
X162218Y95106D02*
Y94045D01*
X163143D01*
Y95106D01*
X162218D01*
G37*
X168277Y170217D02*
G36*
X168277Y170217D02*
G75*
G02*
X172737Y166911I-3032J-8752D01*
G01*
Y170217D01*
X168277D01*
G37*
X45896Y104706D02*
X38903D01*
X48496Y95113D01*
G75*
G02*
X49192Y93435I-1676J-1678D01*
G01*
Y89482D01*
X56628D01*
Y81206D01*
X56454D01*
G75*
G02*
X57539Y78553I-2705J-2654D01*
G01*
G75*
G02*
X50609Y76432I-3789J0D01*
G01*
Y75204D01*
X53832Y71982D01*
X56628D01*
Y64783D01*
X56856D01*
Y71982D01*
X65628D01*
Y66338D01*
X70907D01*
Y68092D01*
X70710D01*
Y72439D01*
X71850D01*
X67845Y76443D01*
G75*
G02*
X67264Y77844I1396J1401D01*
G01*
Y82025D01*
X65922Y83366D01*
X65628D01*
Y81206D01*
X56856D01*
Y89482D01*
X63415D01*
X63330Y89567D01*
X58870D01*
G75*
G02*
X57748Y90031I-2J1584D01*
G01*
X50661Y97118D01*
G75*
G02*
X50197Y98238I1120J1120D01*
G01*
Y100405D01*
X45896Y104706D01*
G36*
X45896Y104706D02*
X38903D01*
X48496Y95113D01*
G75*
G02*
X49192Y93435I-1676J-1678D01*
G01*
Y89482D01*
X56628D01*
Y81206D01*
X56454D01*
G75*
G02*
X57539Y78553I-2705J-2654D01*
G01*
G75*
G02*
X50609Y76432I-3789J0D01*
G01*
Y75204D01*
X53832Y71982D01*
X56628D01*
Y64783D01*
X56856D01*
Y71982D01*
X65628D01*
Y66338D01*
X70907D01*
Y68092D01*
X70710D01*
Y72439D01*
X71850D01*
X67845Y76443D01*
G75*
G02*
X67264Y77844I1396J1401D01*
G01*
Y82025D01*
X65922Y83366D01*
X65628D01*
Y81206D01*
X56856D01*
Y89482D01*
X63415D01*
X63330Y89567D01*
X58870D01*
G75*
G02*
X57748Y90031I-2J1584D01*
G01*
X50661Y97118D01*
G75*
G02*
X50197Y98238I1120J1120D01*
G01*
Y100405D01*
X45896Y104706D01*
G37*
D02*
D12*
X24726Y82844D02*
X21773D01*
X26742Y80828D02*
Y77876D01*
Y84860D02*
Y87813D01*
X28757Y82844D02*
X31710D01*
X31702Y109092D02*
X39261D01*
X31702D02*
X28328D01*
X25009Y112411D01*
Y132096D01*
X26663Y133750D01*
X40015Y85336D02*
X37063D01*
X41781Y87352D02*
Y90305D01*
X47372Y109092D02*
Y106584D01*
X54143Y99813D01*
X47372Y109092D02*
X54931D01*
X52242Y40344D02*
Y32844D01*
Y47844D02*
Y40344D01*
Y47844D02*
X43513D01*
X40757Y50600D01*
Y55718D01*
X43513Y58474D01*
X52242Y67844D02*
X43041D01*
X40364Y65167D01*
Y61624D01*
X43513Y58474D01*
X52242Y67844D02*
Y70218D01*
X48238Y74222D01*
Y81340D01*
X52242Y85344D01*
X49872D01*
X46820Y88395D01*
Y93435D01*
X31702Y108553D01*
Y109092D01*
X53750Y77332D02*
Y74380D01*
X54931Y109092D02*
Y100600D01*
X56506Y99025D01*
X54931Y109092D02*
X62490D01*
X54970Y78553D02*
X57923D01*
X62490Y109092D02*
Y101309D01*
X63198Y100600D01*
X62490Y109092D02*
X70049D01*
X64380Y141545D02*
X64458D01*
X78631Y155718D01*
X92726D01*
X94301Y154143D01*
Y150108D01*
X94793Y149616D01*
X70049Y109092D02*
Y100364D01*
X69104Y99419D01*
X70049Y109092D02*
X77608D01*
Y101230D01*
X76978Y100600D01*
X77608Y109092D02*
X83305D01*
X86230Y112017D01*
Y118435D01*
X74537Y130128D01*
X65797D01*
X64380Y131545D01*
X89616Y60423D02*
X99832D01*
X100994Y59261D01*
X90490Y130128D02*
Y121340D01*
X93513Y118317D01*
X123435D01*
X129340Y124222D01*
Y125108D01*
X129635Y125403D01*
X92628Y143907D02*
X73198D01*
X72017Y142726D01*
Y138789D01*
X80679Y130128D01*
X90490D01*
X101387Y65561D02*
X102950D01*
X107293Y61218D01*
X103848Y139380D02*
Y136328D01*
X106112Y134065D01*
Y124222D01*
X108868Y121466D01*
X119498D01*
X122254Y124222D01*
Y127765D01*
X126584Y132096D01*
X138297D01*
X138346Y132047D01*
X103848Y139380D02*
Y138100D01*
X103159Y137411D01*
X107293Y61218D02*
X114852D01*
X114380Y87608D02*
Y86033D01*
X123435Y76978D01*
X135246D01*
X135639Y76584D01*
X114852Y61218D02*
X122411D01*
X129970D01*
X132478D01*
X135639Y64380D01*
Y76584D01*
Y79340D01*
X144301Y88002D01*
X136990Y143907D02*
Y133403D01*
X138346Y132047D01*
X136990Y152962D02*
Y143907D01*
Y160443D02*
Y152962D01*
X138346Y132047D02*
X144990Y125403D01*
X139734Y59261D02*
Y61230D01*
Y63198D02*
Y61230D01*
Y65167D02*
Y63198D01*
Y67135D02*
Y72411D01*
X144694Y77372D01*
X152175D01*
X154537Y79734D01*
Y87765D01*
X154301Y88002D01*
X139734Y67135D02*
Y65167D01*
X147069Y37844D02*
Y25864D01*
X150049Y22883D01*
X147069Y45344D02*
X149281D01*
X155324Y51387D01*
Y55482D01*
X147069Y45344D02*
Y37844D01*
X150206Y106675D02*
Y120187D01*
X144990Y125403D01*
X150206Y106675D02*
X158080D01*
X155482Y63198D02*
X158080D01*
X159261Y62017D01*
Y57687D01*
X157057Y55482D01*
X155324D01*
X155482Y65167D02*
Y63198D01*
Y67135D02*
Y65167D01*
X167529Y106899D02*
X158305D01*
X158080Y106675D01*
D02*
D13*
X52242Y57844D02*
X44143D01*
X43513Y58474D01*
X61242Y47844D02*
Y51297D01*
X59419Y53120D01*
X45482D01*
X61242Y57844D02*
Y61376D01*
X59813Y62805D01*
X46525D01*
X73868Y60423D02*
Y57470D01*
X64242Y47844D01*
X61242D01*
X73868Y62391D02*
X69242D01*
X64694Y57844D01*
X61242D01*
X73868Y64360D02*
X64726D01*
X61242Y67844D01*
X73868Y66328D02*
Y68297D01*
Y70265D02*
X72273D01*
X70285Y72254D01*
X76820Y57470D02*
Y52923D01*
X64242Y40344D01*
X61242D01*
X76820Y73218D02*
X73868D01*
X69242Y77844D01*
Y82844D01*
X66742Y85344D01*
X61242D01*
X78789Y57470D02*
Y47391D01*
X64242Y32844D01*
X61242D01*
X80757Y73218D02*
Y85482D01*
X82490Y87214D01*
X87025D01*
X88395Y85844D01*
X82726Y57470D02*
Y46328D01*
X76742Y40344D01*
Y31872D01*
X82726Y73218D02*
Y78828D01*
X84242Y80344D01*
X94143D01*
X95876Y82076D01*
Y85844D01*
X84694Y57470D02*
Y49576D01*
X88789Y45482D01*
X95155D01*
X95234Y45561D01*
X86663Y57470D02*
X90883D01*
X95234Y53120D01*
X86663Y73218D02*
Y76033D01*
X88395Y77765D01*
X96663D01*
X100994Y82096D01*
Y93513D01*
X99419Y95088D01*
X96120D01*
X95876Y94844D01*
X86663Y73218D02*
X84694D01*
X95234Y38002D02*
Y33836D01*
X89242Y27844D01*
X95234Y45561D02*
Y38002D01*
X95876Y94844D02*
Y109458D01*
X98435Y112017D01*
X99025Y137608D02*
Y130592D01*
X99490Y130128D01*
X99025Y150206D02*
Y142096D01*
X97372Y140443D01*
X96210D01*
X94793Y139025D01*
Y138198D01*
X100994Y137608D02*
X99025D01*
X100994Y150206D02*
Y155167D01*
X99734Y156427D01*
Y158946D01*
X100994Y150206D02*
Y145088D01*
X102254Y143828D01*
X103769D01*
X103848Y143907D01*
X103159Y150403D02*
Y149124D01*
X103848Y148435D01*
Y143907D02*
X112580D01*
X112805Y144131D01*
X103848Y145974D02*
X106604D01*
X108080Y147450D01*
Y152175D01*
X108868Y152962D01*
X112635D01*
X112805Y153131D01*
X103848Y148435D02*
Y153848D01*
X108474Y158474D01*
X126021D01*
X127990Y160443D01*
X104234Y45561D02*
X109773D01*
X110246Y45088D01*
X104234Y53120D02*
X111348D01*
X111624Y52844D01*
Y29222D02*
X115443D01*
X120679Y34458D01*
Y50206D01*
X117135Y53750D01*
X112529D01*
X111624Y52844D01*
X112805Y153131D02*
X120285D01*
X114380Y110443D02*
X100009D01*
X98435Y112017D01*
X114380Y127202D02*
X110612D01*
X109655Y128159D01*
Y138002D01*
X107293Y140364D01*
Y141545D01*
X106899Y141939D01*
X103946D01*
X103848Y141840D01*
X120285Y144131D02*
X127765D01*
X127990Y143907D01*
Y152962D02*
X120454D01*
X120285Y153131D01*
X145639Y71072D02*
Y73828D01*
X146427Y74616D01*
X159655D01*
X166348Y67923D01*
Y62411D01*
X167923Y60836D01*
X145639Y71072D02*
X143671D01*
X149576D02*
X151545D01*
X159261D01*
X162805Y67529D01*
Y56112D01*
X167923Y50994D01*
Y50600D01*
D02*
D14*
X53750Y78553D03*
D02*
D15*
X43513Y58474D03*
X45482Y53120D03*
X46525Y62805D03*
X82490Y87214D03*
X100994Y59261D03*
X110246Y45088D03*
D02*
D16*
X78789Y73218D02*
Y76742D01*
X77372Y78159D01*
X80757Y57470D02*
Y64360D01*
X81742Y65344D01*
X89616Y62391D02*
Y60423D01*
Y66328D02*
Y64360D01*
Y68297D02*
X84694D01*
X81742Y65344D01*
X89616Y70265D02*
Y68297D01*
Y70265D02*
X86663D01*
X81742Y65344D01*
X99025Y150206D02*
X95383D01*
X94793Y149616D01*
X107293Y70218D02*
X114852D01*
X122411D01*
X129970D01*
X139734Y59261D02*
Y55738D01*
X140049Y55423D01*
X143572D01*
X143671Y55324D01*
X145639D02*
X147608D01*
X148631D01*
X147608Y63198D02*
Y55324D01*
Y71072D02*
Y63198D01*
X148631Y55324D02*
X149576D01*
X151545D02*
X155167D01*
X155324Y55482D01*
X155482Y63198D02*
Y61230D01*
D02*
D17*
X89616Y66328D02*
X91958D01*
X92726Y65561D01*
X89616Y70265D02*
X92746D01*
X93907Y69104D01*
D02*
D18*
X26742Y72844D02*
X38289D01*
X41781Y76336D01*
X39261Y118092D02*
Y137135D01*
X32883Y143513D01*
X26899D01*
X26663Y143750D01*
X39261Y118092D02*
X31702D01*
X47372D02*
X39261D01*
X54931D02*
X47372D01*
X62490D02*
X54931D01*
X70049D02*
X62490D01*
X76742Y22872D02*
X82108D01*
X84616Y20364D01*
X97214D01*
X99734Y22883D01*
Y27352D01*
X99242Y27844D01*
X77608Y118092D02*
X70049D01*
X77765Y61230D03*
Y63986D03*
Y66742D03*
Y69498D03*
X80521Y61230D03*
Y63986D03*
Y66742D03*
Y69498D03*
X83277Y61230D03*
Y63986D03*
Y66742D03*
Y69498D03*
X86033Y61230D03*
Y63986D03*
Y66742D03*
Y69498D03*
X88395Y94844D02*
Y99734D01*
X84616Y103513D01*
X89478Y139380D02*
X79301D01*
X78710Y138789D01*
X89478Y148435D02*
X78868D01*
X90265Y137411D02*
Y138592D01*
X89478Y139380D01*
X90265Y150403D02*
Y149222D01*
X89478Y148435D01*
X100994Y69498D02*
X106572D01*
X107293Y70218D01*
X102254Y166506D02*
Y163986D01*
X99734Y161466D01*
X104234Y38002D02*
Y32836D01*
X99242Y27844D01*
X107293Y70218D02*
X106966D01*
X101387Y75797D01*
X114380Y136202D02*
X127147D01*
X127765Y136820D01*
X114380Y136202D02*
Y142557D01*
X112805Y144131D01*
X138069Y37844D02*
Y45344D01*
Y49092D01*
X139576Y50600D01*
X140049Y22883D02*
Y35864D01*
X138069Y37844D01*
X143513Y59261D03*
Y62017D03*
Y64773D03*
Y67529D03*
X146269Y59261D03*
Y62017D03*
Y64773D03*
Y67529D03*
X149025Y59261D03*
Y62017D03*
Y64773D03*
Y67529D03*
X151781Y59261D03*
Y62017D03*
Y64773D03*
Y67529D03*
X158080Y97675D02*
X166754D01*
X167529Y96899D01*
X158080Y97675D02*
X150206D01*
D02*
D19*
X147608Y55324D02*
Y53120D01*
D02*
D70*
X78710Y138789D03*
X78868Y148435D03*
X84616Y103513D03*
X101387Y75797D03*
X102254Y166506D03*
X127765Y136820D03*
D02*
D71*
X29183Y25403D03*
Y161466D03*
X165246Y25403D03*
Y161466D03*
D02*
D20*
X31702Y109092D03*
Y118092D03*
X39261Y109092D03*
Y118092D03*
X41781Y76336D03*
Y85336D03*
X47372Y109092D03*
Y118092D03*
X54931Y109092D03*
Y118092D03*
X62490Y109092D03*
Y118092D03*
X70049Y109092D03*
Y118092D03*
X76742Y22872D03*
Y31872D03*
X77608Y109092D03*
Y118092D03*
X88395Y85844D03*
Y94844D03*
X95876Y85844D03*
Y94844D03*
X107293Y61218D03*
Y70218D03*
X112805Y144131D03*
Y153131D03*
X114380Y127202D03*
Y136202D03*
X114852Y61218D03*
Y70218D03*
X120285Y144131D03*
Y153131D03*
X122411Y61218D03*
Y70218D03*
X129970Y61218D03*
Y70218D03*
X150206Y97675D03*
Y106675D03*
X158080Y97675D03*
Y106675D03*
D02*
D21*
X26663Y133750D03*
Y143750D03*
X26742Y40679D03*
Y50679D03*
Y60679D03*
Y72844D03*
Y82844D03*
X64380Y131545D03*
Y141545D03*
X140049Y22883D03*
X144301Y88002D03*
X150049Y22883D03*
X154301Y88002D03*
X167529Y96899D03*
Y106899D03*
D02*
D22*
X52242Y32844D03*
Y40344D03*
Y47844D03*
Y57844D03*
Y67844D03*
Y85344D03*
X61242Y32844D03*
Y40344D03*
Y47844D03*
Y57844D03*
Y67844D03*
Y85344D03*
X90490Y130128D03*
X95234Y38002D03*
Y45561D03*
Y53120D03*
X99490Y130128D03*
X104234Y38002D03*
Y45561D03*
Y53120D03*
X127990Y143907D03*
Y152962D03*
Y160443D03*
X136990Y143907D03*
Y152962D03*
Y160443D03*
X138069Y37844D03*
Y45344D03*
X147069Y37844D03*
Y45344D03*
D02*
D23*
X111624Y29222D03*
Y52844D03*
X129340Y29222D03*
Y52844D03*
D02*
D24*
X89242Y27844D03*
X99242D03*
D02*
D25*
X114380Y87608D03*
Y110443D03*
D02*
D26*
X86230Y112017D03*
X98435D03*
D02*
D27*
X143671Y55324D03*
Y71072D03*
X145639Y55324D03*
Y71072D03*
X147608Y55324D03*
Y71072D03*
X149576Y55324D03*
Y71072D03*
X151545Y55324D03*
Y71072D03*
D02*
D28*
X139734Y59261D03*
Y61230D03*
Y63198D03*
Y65167D03*
Y67135D03*
X155482Y59261D03*
Y61230D03*
Y63198D03*
Y65167D03*
Y67135D03*
D02*
D29*
X147608Y63198D03*
D02*
D72*
X167923Y50600D03*
Y60836D03*
D02*
D73*
X73868Y60423D03*
Y62391D03*
Y64360D03*
Y66328D03*
Y68297D03*
Y70265D03*
X89616Y60423D03*
Y62391D03*
Y64360D03*
Y66328D03*
Y68297D03*
Y70265D03*
D02*
D74*
X76820Y57470D03*
Y73218D03*
X78789Y57470D03*
Y73218D03*
X80757Y57470D03*
Y73218D03*
X82726Y57470D03*
Y73218D03*
X84694Y57470D03*
Y73218D03*
X86663Y57470D03*
Y73218D03*
D02*
D75*
X81742Y65344D03*
D02*
D76*
X103848Y139380D03*
Y148435D03*
D02*
D77*
Y141840D03*
Y145974D03*
D02*
D78*
Y143907D03*
D02*
D79*
X99025Y137608D03*
Y150206D03*
X100994Y137608D03*
Y150206D03*
D02*
D80*
X94793Y138198D03*
Y149616D03*
D02*
D81*
X89478Y139380D03*
Y148435D03*
D02*
D82*
X92628Y143907D03*
D02*
D83*
X103159Y137411D03*
Y150403D03*
D02*
D84*
X90265Y137411D03*
Y150403D03*
D02*
D85*
X129635Y125403D03*
X144990D03*
X0Y0D02*
M02*
